<svg xmlns="http://www.w3.org/2000/svg" viewBox="0.1 0 132.27 31.75">
    <path fill="#ff5367" fill-rule="evenodd" d="M45.988 24.907c-2.385 0-3.007-.934-3.138-2.804-.915.966-3.071 2.84-5.685 2.84-2.745 0-4.64-1.325-4.64-4.1 0-3.84 3.43-5.194 6.797-5.68 1.438-.224 2.875-.353 3.464-.416v-2.228c0-1.808-.686-2.355-3.725-2.355-1.176 0-2.81.193-4.64.644l-.785-3.063c2.158-.807 4.28-1.099 6.307-1.099 2.68-.03 7.255.195 7.255 5.003v4.193l.228 5.872h2.713l.229 1.42c-1.014.937-3.106 1.773-4.38 1.773zm14.093 0c-1.045 0-1.667-.032-2.285-.097l.13 3.39c.032.806.326.903 1.078 1.064l2.418.518c0 .643.033 1.129-.196 1.967H50.573c-.229-.838-.164-1.356-.13-1.838l1.208-.421c.947-.323 1.372-1.16 1.372-1.967l.098-11.616V9.421h-2.94V7.422c1.34-.323 3.856-.776 5.914-.776.915 0 1.373.42 1.373 1.325v.613c1.176-1.1 2.745-1.906 4.443-1.906 4.804 0 7.745 2.194 7.745 8.81 0 7.389-4.769 9.42-9.575 9.42zm25.207-13.679c-.947-.517-1.928-.709-2.875-.709-1.7 0-3.007.387-3.629.904v4.387l.1 5.195c0 .578.098.744.458.806l3.92.806c0 .645-.066 1.55-.23 2.034H71.695c-.196-1.033-.165-1.29-.165-1.774l1.472-.55c.783-.292 1.24-.646 1.24-1.839l.099-4.709V9.421H71.4V7.324c1.568-.322 3.987-.677 5.784-.677.784 0 1.47.257 1.47 1.26v1.288c.882-1.26 2.648-2.548 4.74-2.548 1.436 0 2.45.323 3.136.71l-1.242 3.871zm5.852 4.87c.229 4.197 2.516 5.295 5.621 5.295 1.24 0 3.072-.097 5.031-.517l.785 2.418c-1.863 1.034-4.475 1.613-6.6 1.613-5.883 0-9.444-1.484-9.444-8.644 0-4.905 3.431-9.585 8.854-9.585 5.491 0 7.518 3.26 7.518 8.07v1.35H91.14zm18.275 0c.23 4.197 2.515 5.295 5.621 5.295 1.242 0 3.073-.097 5.032-.517l.785 2.418c-1.863 1.034-4.477 1.613-6.6 1.613-5.884 0-9.444-1.484-9.444-8.644 0-4.905 3.432-9.585 8.853-9.585 5.493 0 7.518 3.26 7.518 8.07v1.35h-11.765zm22.794 8.553h-10.096c-.13-.647-.13-1.002-.13-1.71l1.862-.581c.686-.195.915-.679.915-1.453l.132-5.097V2.774h-2.942V.678C123.42.323 126.263 0 127.799 0c.981 0 1.535.323 1.535 1.422v14.42l.099 5.228c0 .581.032 1.032.49 1.13l2.45.58c0 .805-.03 1.355-.164 1.871zM10.42 27.034L.105 3.938c-.017-.032 2.255-.098 3.063-.097 1.563.002 1.939 1.272 2.225 1.713L16.95 30.792c.016.032-2.438.098-3.245.098-1.934 0-2.665-2.812-3.285-3.856zm11.094-10.69c-1.152-1.716-3.47-6.49-5.055-8.902-.024-.036 2.715-.116 3.613-.117 1.107-.001 1.605.938 2.056 1.428.208.225 4.188 6.975 4.755 7.59-.567.619-4.084 6.242-4.291 6.467-.453.49-.95 1.429-2.056 1.428-.898-.001-3.638-.081-3.613-.117 1.584-2.411 3.439-6.059 4.591-7.777zm21.273.56c-.327.067-1.634.196-2.68.391-1.927.353-3.104 1.064-3.104 2.516 0 .936.62 1.645 1.994 1.645 1.372 0 3.235-.74 3.79-.935v-3.616zm18.08-7.32c-1.372 0-2.647.546-3.268.807v5.614l.13 6.259c.59.126.95.257 2.485.257 3.266 0 4.674-2.838 4.674-6.422 0-3.546-1.179-6.516-4.02-6.516zm34.261-.452c-2.549 0-3.954 1.935-4.052 4.806h7.057c.034-3.064-.946-4.806-3.005-4.806zm18.276 0c-2.549 0-3.954 1.935-4.053 4.806h7.058c.033-3.064-.947-4.806-3.005-4.806z"/>
</svg>