<svg xmlns="http://www.w3.org/2000/svg" xmlns:xlink="http://www.w3.org/1999/xlink" version="1.1" viewBox="2.3 37.83 293.21 116.7">
<g id="surface1">
<path style=" stroke:none;fill-rule:nonzero;fill:rgb(0%,0%,0%);fill-opacity:1;" d="M 271.902344 51.363281 C 258.859375 51.363281 248.292969 61.945312 248.292969 75.015625 C 248.292969 88.082031 258.859375 98.667969 271.902344 98.667969 C 284.945312 98.667969 295.507812 88.082031 295.507812 75.015625 C 295.507812 61.945312 284.945312 51.363281 271.902344 51.363281 Z M 286.140625 75.015625 C 286.140625 82.929688 279.710938 89.28125 271.902344 89.28125 C 264 89.28125 257.664062 82.835938 257.664062 75.015625 C 257.664062 67.097656 264.09375 60.75 271.902344 60.75 C 279.800781 60.75 286.140625 67.097656 286.140625 75.015625 Z M 2.296875 37.832031 L 11.480469 37.832031 L 11.480469 97.5625 L 2.296875 97.5625 Z M 25.8125 53.292969 L 35 53.292969 L 35 97.65625 L 25.8125 97.65625 Z M 181.238281 51.363281 C 168.191406 51.363281 157.628906 61.945312 157.628906 75.015625 C 157.628906 88.082031 168.191406 98.667969 181.238281 98.667969 C 186.75 98.667969 191.710938 96.734375 195.75 93.605469 L 195.75 97.5625 L 204.84375 97.5625 L 204.84375 75.015625 C 204.84375 61.945312 194.28125 51.363281 181.238281 51.363281 Z M 181.238281 89.28125 C 173.335938 89.28125 167 82.835938 167 75.015625 C 167 67.097656 173.429688 60.75 181.238281 60.75 C 189.136719 60.75 195.476562 67.191406 195.476562 75.015625 C 195.476562 82.835938 189.136719 89.28125 181.238281 89.28125 Z M 89.285156 71.886719 L 89.285156 97.5625 L 80.101562 97.5625 L 80.101562 71.886719 C 80.101562 62.957031 75.691406 61.117188 68.984375 61.117188 C 63.382812 61.117188 59.890625 63.417969 58.699219 64.523438 C 58.699219 64.523438 58.699219 75.289062 58.699219 80.535156 L 58.699219 97.65625 L 49.511719 97.65625 L 49.511719 60.105469 C 55.023438 54.765625 64.484375 52.375 68.894531 52.375 C 81.9375 52.28125 89.285156 59.277344 89.285156 71.886719 Z M 243.425781 52.648438 L 241.957031 61.210938 L 241.3125 61.117188 C 240.484375 61.027344 239.566406 61.027344 238.648438 61.027344 C 233.046875 61.210938 229.648438 63.234375 228.269531 65.074219 C 228.269531 65.074219 228.269531 77.222656 228.269531 80.445312 L 228.269531 97.5625 L 219.082031 97.5625 L 219.082031 60.75 C 219.082031 60.75 225.054688 52.28125 238.558594 52.28125 C 240.027344 52.28125 243.425781 52.648438 243.425781 52.648438 Z M 243.425781 52.648438 "/>
<path style=" stroke:none;fill-rule:nonzero;fill:rgb(46.666667%,23.921569%,74.117647%);fill-opacity:1;" d="M 123.917969 106.671875 C 110.78125 106.671875 100.035156 117.441406 100.035156 130.601562 C 100.035156 143.761719 110.78125 154.53125 123.917969 154.53125 C 137.054688 154.53125 147.800781 143.761719 147.800781 130.601562 C 147.800781 117.441406 137.054688 106.671875 123.917969 106.671875 Z M 138.15625 130.601562 C 138.15625 138.515625 131.726562 144.867188 123.917969 144.867188 C 116.015625 144.867188 109.679688 138.425781 109.679688 130.601562 C 109.679688 122.6875 116.109375 116.335938 123.917969 116.335938 C 131.816406 116.335938 138.15625 122.78125 138.15625 130.601562 Z M 123.917969 98.941406 C 137.054688 98.941406 147.800781 88.175781 147.800781 75.015625 C 147.800781 61.855469 137.054688 51.085938 123.917969 51.085938 C 110.78125 51.085938 100.035156 61.855469 100.035156 75.015625 C 100.035156 88.175781 110.78125 98.941406 123.917969 98.941406 Z M 109.679688 75.015625 C 109.679688 67.097656 116.109375 60.75 123.917969 60.75 C 131.816406 60.75 138.15625 67.191406 138.15625 75.015625 C 138.15625 82.929688 131.726562 89.28125 123.917969 89.28125 C 116.015625 89.28125 109.679688 82.929688 109.679688 75.015625 Z M 109.679688 75.015625 "/>
</g>
</svg>