<?xml version="1.0" encoding="utf-8"?>
<!-- Generator: Adobe Illustrator 22.1.0, SVG Export Plug-In . SVG Version: 6.00 Build 0)  -->
<svg version="1.1" id="Warstwa_1" xmlns="http://www.w3.org/2000/svg" xmlns:xlink="http://www.w3.org/1999/xlink" x="0px" y="0px"
	 viewBox="0 0 325.5 184.5" style="enable-background:new 0 0 325.5 184.5;" xml:space="preserve">
<style type="text/css">
	.st0{fill:#773DBD;}
</style>
<g>
	<path d="M296,55.7c-14.2,0-25.7,11.5-25.7,25.7c0,14.2,11.5,25.7,25.7,25.7c14.2,0,25.7-11.5,25.7-25.7
		C321.7,67.2,310.2,55.7,296,55.7z M311.5,81.4c0,8.6-7,15.5-15.5,15.5c-8.6,0-15.5-7-15.5-15.5c0-8.6,7-15.5,15.5-15.5
		C304.6,65.9,311.5,72.8,311.5,81.4z M2.5,41h10v64.9h-10V41z M28.1,57.8h10v48.2h-10V57.8z M197.3,55.7
		c-14.2,0-25.7,11.5-25.7,25.7c0,14.2,11.5,25.7,25.7,25.7c6,0,11.4-2.1,15.8-5.5v4.3h9.9V81.4C223,67.2,211.5,55.7,197.3,55.7z
		 M197.3,96.9c-8.6,0-15.5-7-15.5-15.5c0-8.6,7-15.5,15.5-15.5c8.6,0,15.5,7,15.5,15.5C212.8,89.9,205.9,96.9,197.3,96.9z M97.2,78
		v27.9h-10V78c0-9.7-4.8-11.7-12.1-11.7c-6.1,0-9.9,2.5-11.2,3.7c0,0,0,11.7,0,17.4v18.6h-10V65.2c6-5.8,16.3-8.4,21.1-8.4
		C89.2,56.7,97.2,64.3,97.2,78z M265,57.1l-1.6,9.3l-0.7-0.1c-0.9-0.1-1.9-0.1-2.9-0.1c-6.1,0.2-9.8,2.4-11.3,4.4c0,0,0,13.2,0,16.7
		v18.6h-10v-40c0,0,6.5-9.2,21.2-9.2C261.3,56.7,265,57.1,265,57.1z"/>
	<path class="st0" d="M134.9,115.8c-14.3,0-26,11.7-26,26c0,14.3,11.7,26,26,26c14.3,0,26-11.7,26-26
		C160.9,127.5,149.2,115.8,134.9,115.8z M150.4,141.8c0,8.6-7,15.5-15.5,15.5c-8.6,0-15.5-7-15.5-15.5c0-8.6,7-15.5,15.5-15.5
		C143.5,126.3,150.4,133.3,150.4,141.8z M134.9,107.4c14.3,0,26-11.7,26-26c0-14.3-11.7-26-26-26c-14.3,0-26,11.7-26,26
		C108.9,95.7,120.6,107.4,134.9,107.4z M119.4,81.4c0-8.6,7-15.5,15.5-15.5c8.6,0,15.5,7,15.5,15.5c0,8.6-7,15.5-15.5,15.5
		C126.3,96.9,119.4,90,119.4,81.4z"/>
</g>
</svg>
