<svg width="124" height="48" viewBox="0 0 124 48" fill="none" xmlns="http://www.w3.org/2000/svg">
<path d="M31.0678 23.9313C31.0678 21.7394 29.3948 20.0006 27.1807 20.0006C24.8643 20.0006 23.2921 21.8002 23.2921 23.9313C23.2921 26.0818 24.8221 27.9048 27.1158 27.9048C29.6839 27.9048 31.0466 25.895 31.0678 23.9533V23.9313ZM21.2227 14.2721H23.3749V20.1267C24.4096 18.6568 26.063 18.0183 27.5087 17.9947C30.4278 17.9947 33.2167 20.1657 33.2167 23.9111C33.2167 27.5311 30.6551 29.9086 27.426 29.9086C25.5077 29.9086 24.0165 28.9793 23.2921 27.6328V29.5767H21.2227V14.2721Z" fill="#101010"/>
<path d="M39.0898 18.419H41.1153V20.0714C41.7538 18.7481 42.933 18.1095 44.4663 18.0859V20.2382H44.3185C42.2931 20.2382 41.2388 21.3544 41.2388 23.5888V29.6682H39.0898V18.419Z" fill="#101010"/>
<path d="M50.0234 15.4274C50.0234 16.2164 50.6602 16.8548 51.4496 16.8548C52.2358 16.8548 52.8726 16.2164 52.8726 15.4274C52.8726 14.641 52.2358 14 51.4496 14C50.6602 14 50.0234 14.641 50.0234 15.4274ZM50.4782 18.3985H52.6274V29.6477H50.4782V18.3985Z" fill="#00AEEF"/>
<path d="M58.7107 20.0007H56.6836V18.3277H58.7107V14.2721H60.8597V18.3277H63.0315V20.0007H60.8597V29.577H58.7107V20.0007Z" fill="#00AEEF"/>
<path d="M76.4762 23.0525C76.3721 21.56 74.8842 19.8848 72.7562 19.9254C70.5601 19.9254 69.1373 21.521 69.0333 23.0525H76.4762ZM68.9911 24.7279C69.0917 27.0009 71.0798 28.1595 72.776 28.1595C74.2831 28.1595 75.4005 27.4342 76.0213 26.2569H78.2532C77.7169 27.5007 76.9305 28.43 75.9789 29.0514C75.027 29.687 73.9096 30 72.776 30C69.0917 30 66.8242 27.0432 66.8242 24.0607C66.8242 20.8386 69.3421 18.0859 72.7562 18.0859C74.3645 18.0859 75.8361 18.6857 76.9116 19.7427C78.2336 21.0864 78.7889 22.8454 78.607 24.7279H68.9911Z" fill="#101010"/>
<path d="M84.7656 18.4193H86.7929V20.1541C87.3318 18.9971 88.5891 18.0659 90.5969 18.0863C94.1934 18.1286 95.1482 20.735 95.1482 23.073V29.6685H92.9751V23.5688C92.9751 21.54 92.1856 20.0923 89.9961 20.1165C87.8877 20.1339 86.9193 21.4588 86.9193 23.4021V29.6685H84.7656V18.4193Z" fill="#101010"/>
<path d="M110.84 23.0525C110.742 21.56 109.248 19.8848 107.12 19.9254C104.927 19.9254 103.501 21.521 103.397 23.0525H110.84ZM103.358 24.7279C103.461 27.0009 105.446 28.1595 107.139 28.1595C108.65 28.1595 109.768 27.4342 110.388 26.2569H112.62C112.084 27.5007 111.294 28.43 110.349 29.0514C109.397 29.687 108.279 30 107.139 30C103.461 30 101.188 27.0432 101.188 24.0607C101.188 20.8386 103.712 18.0859 107.12 18.0859C108.734 18.0859 110.203 18.6857 111.278 19.7427C112.6 21.0864 113.162 22.8454 112.974 24.7279H103.358Z" fill="#101010"/>
<path d="M118.878 20.0007H116.852V18.3277H118.878V14.2721H121.032V18.3277H123.199V20.0007H121.032V29.577H118.878V20.0007Z" fill="#101010"/>
<path d="M0 22.1276C0 26.3162 3.39124 29.7124 7.57702 29.7124C11.7656 29.7124 15.1539 26.3162 15.1539 22.1276C15.1539 17.9413 11.7656 14.5449 7.57702 14.5449C3.39124 14.5449 0 17.9413 0 22.1276Z" fill="#00AEEF"/>
</svg>
