<svg xmlns="http://www.w3.org/2000/svg" viewBox="0 0 647.04 133.3"><defs><style>.a{fill:#00e1e1;}</style></defs><path class="a" d="M133.3,92.85h-.38c-6.07,0-12.48-6.42-12.48-12.49V80h-.93v.38c0,6.07-6.42,12.49-12.49,12.49h-.38v.93H107c6.07,0,12.49,6.41,12.49,12.48v.38h.93v-.38c0-6.07,6.41-12.48,12.48-12.48h.38v-.93Z"/><path class="a" d="M26.66,12.86h-.38C20.21,12.86,13.8,6.45,13.8.38V0h-.94V.38c0,6.07-6.41,12.48-12.48,12.48H0v.94H.38c6.07,0,12.48,6.41,12.48,12.48v.38h.94v-.38c0-6.07,6.41-12.48,12.48-12.48h.38v-.94Z"/><path class="a" d="M26.66,39.53h-.38C20.21,39.53,13.8,33.11,13.8,27v-.38h-.94V27c0,6.07-6.41,12.49-12.48,12.49H0v.93H.38c6.07,0,12.48,6.41,12.48,12.48v.38h.94v-.38c0-6.07,6.41-12.48,12.48-12.48h.38v-.93Z"/><path class="a" d="M53.32,39.53h-.38c-6.07,0-12.48-6.42-12.48-12.49v-.38h-.94V27c0,6.07-6.41,12.49-12.48,12.49h-.38v.93H27c6.07,0,12.48,6.41,12.48,12.48v.38h.94v-.38c0-6.07,6.41-12.48,12.48-12.48h.38v-.93Z"/><path class="a" d="M26.66,66.19h-.38c-6.07,0-12.48-6.42-12.48-12.49v-.38h-.94v.38c0,6.07-6.41,12.49-12.48,12.49H0v.93H.38c6.07,0,12.48,6.41,12.48,12.48V80h.94V79.6c0-6.07,6.41-12.48,12.48-12.48h.38v-.93Z"/><path class="a" d="M53.32,66.19h-.38c-6.07,0-12.48-6.42-12.48-12.49v-.38h-.94v.38c0,6.07-6.41,12.49-12.48,12.49h-.38v.93H27c6.07,0,12.48,6.41,12.48,12.48V80h.94V79.6c0-6.07,6.41-12.48,12.48-12.48h.38v-.93Z"/><path class="a" d="M80,66.19H79.6c-6.07,0-12.48-6.42-12.48-12.49v-.38h-.94v.38c0,6.07-6.41,12.49-12.48,12.49h-.38v.93h.38c6.07,0,12.48,6.41,12.48,12.48V80h.94V79.6c0-6.07,6.41-12.48,12.48-12.48H80v-.93Z"/><path class="a" d="M26.66,92.85h-.38c-6.07,0-12.48-6.42-12.48-12.49V80h-.94v.38c0,6.07-6.41,12.49-12.48,12.49H0v.93H.38c6.07,0,12.48,6.41,12.48,12.48v.38h.94v-.38c0-6.07,6.41-12.48,12.48-12.48h.38v-.93Z"/><path class="a" d="M53.32,92.85h-.38c-6.07,0-12.48-6.42-12.48-12.49V80h-.94v.38c0,6.07-6.41,12.49-12.48,12.49h-.38v.93H27c6.07,0,12.48,6.41,12.48,12.48v.38h.94v-.38c0-6.07,6.41-12.48,12.48-12.48h.38v-.93Z"/><path class="a" d="M106.64,39.53h-.38c-6.07,0-12.48-6.42-12.48-12.49v-.38h-.93V27c0,6.07-6.42,12.49-12.49,12.49H80v.93h.38c6.07,0,12.49,6.41,12.49,12.48v.38h.93v-.38c0-6.07,6.41-12.48,12.48-12.48h.38v-.93Z"/><path class="a" d="M106.64,66.19h-.38c-6.07,0-12.48-6.42-12.48-12.49v-.38h-.93v.38c0,6.07-6.42,12.49-12.49,12.49H80v.93h.38c6.07,0,12.49,6.41,12.49,12.48V80h.93V79.6c0-6.07,6.41-12.48,12.48-12.48h.38v-.93Z"/><path class="a" d="M106.64,92.85h-.38c-6.07,0-12.48-6.42-12.48-12.49V80h-.93v.38c0,6.07-6.42,12.49-12.49,12.49H80v.93h.38c6.07,0,12.49,6.41,12.49,12.48v.38h.93v-.38c0-6.07,6.41-12.48,12.48-12.48h.38v-.93Z"/><path class="a" d="M133.3,39.53h-.38c-6.07,0-12.48-6.42-12.48-12.49v-.38h-.93V27c0,6.07-6.42,12.49-12.49,12.49h-.38v.93H107c6.07,0,12.49,6.41,12.49,12.48v.38h.93v-.38c0-6.07,6.41-12.48,12.48-12.48h.38v-.93Z"/><path class="a" d="M133.3,12.86h-.38c-6.07,0-12.48-6.41-12.48-12.48V0h-.93V.38c0,6.07-6.42,12.48-12.49,12.48h-.38v.94H107c6.07,0,12.49,6.41,12.49,12.48v.38h.93v-.38c0-6.07,6.41-12.48,12.48-12.48h.38v-.94Z"/><path class="a" d="M133.3,66.19h-.38c-6.07,0-12.48-6.42-12.48-12.49v-.38h-.93v.38c0,6.07-6.42,12.49-12.49,12.49h-.38v.93H107c6.07,0,12.49,6.41,12.49,12.48V80h.93V79.6c0-6.07,6.41-12.48,12.48-12.48h.38v-.93Z"/><path class="a" d="M133.3,119.51h-.38c-6.07,0-12.48-6.42-12.48-12.49v-.38h-.93V107c0,6.07-6.42,12.49-12.49,12.49h-.38v.93H107c6.07,0,12.49,6.41,12.49,12.48v.38h.93v-.38c0-6.07,6.41-12.48,12.48-12.48h.38v-.93Z"/><path class="a" d="M26.66,119.51h-.38c-6.07,0-12.48-6.42-12.48-12.49v-.38h-.94V107c0,6.07-6.41,12.49-12.48,12.49H0v.93H.38c6.07,0,12.48,6.41,12.48,12.48v.38h.94v-.38c0-6.07,6.41-12.48,12.48-12.48h.38v-.93Z"/><path d="M630.4,91.49V48.22h16.72V41.57H605.68v6.65h16.79v33a30.42,30.42,0,0,1-.51,6.75,4.87,4.87,0,0,1-3.07,3.57ZM399.81,41.6a4.88,4.88,0,0,1,3.06,3.58,30.36,30.36,0,0,1,.51,6.75V91.49h30.48V84.76H411.17V41.57l-11.36,0Zm-54.84,0A4.89,4.89,0,0,1,348,45.14a30.42,30.42,0,0,1,.51,6.75v39.6h32.84V84.74H356.33V69.68H380V63.32H356.33v-15h25V41.57Zm-178.9,0a4.87,4.87,0,0,1,3.07,3.57,30.1,30.1,0,0,1,.51,6.72V91.49h7.78V69.72h28.7V91.49h7.78V41.57h-7.78V63.28h-28.7V41.57Zm333,49.92h7.48l17.21-40.35L541,91.5h7.48L527.2,41.57H517s3,.75.7,6.18L499.09,91.49Zm-270.31,0h7.48l17.21-40.35L270.69,91.5h7.48L256.89,41.57H246.72s3,.75.7,6.18L228.78,91.49ZM485.32,76.54a20.05,20.05,0,1,1,0-20l5.85-3.38a26.83,26.83,0,1,0,0,26.72l-5.85-3.38ZM578.4,63.31c-10.78-2.31-12.75-4.79-12.75-9s4-7.23,9.74-7.23a20.79,20.79,0,0,1,13.71,5.17l.54.44,4-5.35-.51-.41a26.09,26.09,0,0,0-17.64-6.17c-9.72,0-16.77,5.9-16.77,14.18,0,9.22,6.79,12.58,17,14.8s12.2,4.62,12.2,8.78c0,4.5-4.21,7.65-10.24,7.65-6.3,0-11-2-16.34-6.75l-.52-.47-4.3,5.09.49.45a29.23,29.23,0,0,0,20.46,8c10.25,0,17.4-6,17.4-14.67,0-7.66-4.93-12-16.49-14.52ZM317.1,48.39H288.3V41.53h40.87v2.86l-28.8,40.28h28.8v6.85H288.3V88.67l28.8-40.28Z"/></svg>