<?xml version="1.0" encoding="UTF-8" standalone="no"?>
<svg
   width="400.00012"
   height="166.7688"
   viewBox="0 0 400.00012 166.7688"
   version="1.1"
   id="svg18"
   sodipodi:docname="Ringier Axel Springer Logo 03.2022.svg"
   inkscape:version="1.1.1 (3bf5ae0d25, 2021-09-20)"
   xmlns:inkscape="http://www.inkscape.org/namespaces/inkscape"
   xmlns:sodipodi="http://sodipodi.sourceforge.net/DTD/sodipodi-0.dtd"
   xmlns="http://www.w3.org/2000/svg"
   xmlns:svg="http://www.w3.org/2000/svg"
   xmlns:rdf="http://www.w3.org/1999/02/22-rdf-syntax-ns#"
   xmlns:cc="http://creativecommons.org/ns#"
   xmlns:dc="http://purl.org/dc/elements/1.1/">
  <sodipodi:namedview
     id="namedview20"
     pagecolor="#ffffff"
     bordercolor="#111111"
     borderopacity="1"
     inkscape:pageshadow="0"
     inkscape:pageopacity="0"
     inkscape:pagecheckerboard="1"
     showgrid="false"
     inkscape:zoom="3.4674988"
     inkscape:cx="200.00007"
     inkscape:cy="83.201181"
     inkscape:window-width="1600"
     inkscape:window-height="837"
     inkscape:window-x="-8"
     inkscape:window-y="-8"
     inkscape:window-maximized="1"
     inkscape:current-layer="svg18" />
  <!-- Generator: Sketch 3.6.1 (26313) - http://www.bohemiancoding.com/sketch -->
  <title
     id="title2">Logo</title>
  <desc
     id="desc4">Created with Sketch.</desc>
  <defs
     id="defs6" />
  <path
     d="M 0.08467455,144.04859 H 66.835771 v 22.7202 H 0.08467455 Z"
     id="Fill-1"
     fill="#009949"
     style="fill-rule:evenodd;stroke:none;stroke-width:3.64323" />
  <path
     d="m 336.716,144.04859 h 51.36012 v 22.7202 H 336.716 Z"
     id="Fill-3"
     fill="#d9222a"
     style="fill-rule:evenodd;stroke:none;stroke-width:3.64323" />
  <path
     d="m 136.3597,144.04859 h 35.61498 v 22.7202 H 136.3597 Z"
     id="Fill-4"
     fill="#d8117d"
     style="fill-rule:evenodd;stroke:none;stroke-width:3.64323" />
  <path
     d="m 287.74488,144.04859 h 49.02192 v 22.7202 h -49.02192 z"
     id="Fill-5"
     fill="#fedb3d"
     style="fill-rule:evenodd;stroke:none;stroke-width:3.64323" />
  <path
     d="M 66.837184,144.04859 H 136.3597 v 22.7202 H 66.837184 Z"
     id="Fill-6"
     fill="#00a3db"
     style="fill-rule:evenodd;stroke:none;stroke-width:3.64323" />
  <path
     d="m 171.97468,144.04859 h 115.7702 v 22.7202 h -115.7702 z"
     id="Fill-7"
     fill="#007fba"
     style="fill-rule:evenodd;stroke:none;stroke-width:3.64323" />
  <path
     d="m 201.78435,12.310001 h 8.45254 v 5.999384 h 0.12416 c 1.62844,-4.061555 6.00994,-6.873942 10.33216,-6.873942 0.62371,0 1.37583,0.125338 1.94169,0.312644 v 8.247041 c -0.81703,-0.187305 -2.12936,-0.312644 -3.19475,-0.312644 -6.51227,0 -8.76581,4.686843 -8.76581,10.373583 v 14.557659 h -8.88999 z M 227.95337,-2.5152017e-6 h 8.8914 V 7.3105147 h -8.8914 z m 0,12.3100035152017 h 8.8914 v 32.303725 h -8.8914 z m 17.4667,0 h 8.45255 v 4.49813 h 0.18908 c 2.25495,-3.623572 6.1355,-5.372688 9.89328,-5.372688 9.45444,0 11.83216,5.310722 11.83216,13.308493 v 19.86979 h -8.88999 V 26.369121 c 0,-5.310722 -1.56633,-7.935805 -5.69664,-7.935805 -4.82176,0 -6.88904,2.687048 -6.88904,9.246938 v 16.933472 h -8.8914 z m 69.81038,30.241964 c 0,5.310725 -1.87959,14.308391 -16.77949,14.308391 -6.38668,0 -13.83734,-2.998281 -14.27901,-10.372172 h 8.83354 c 0.80997,3.312334 3.50378,4.436164 6.63362,4.436164 4.94594,0 7.14021,-3.374302 7.14021,-7.997771 v -4.248859 h -0.127 c -1.94168,3.374302 -5.82364,4.998077 -9.70278,4.998077 -9.70561,0 -13.84157,-7.372481 -13.84157,-16.244811 0,-8.373788 4.82176,-15.995541 13.90225,-15.995541 4.2559,0 7.51274,1.437881 9.6421,5.185383 h 0.12701 v -4.310825 h 8.45112 z m -8.45113,-14.495693 c 0,-5.248757 -1.8161,-9.9356 -7.57624,-9.9356 -5.01085,0 -7.20371,4.374199 -7.20371,9.184973 0,4.624877 1.75401,9.68492 7.20371,9.68492 5.06729,0 7.57624,-4.310824 7.57624,-8.934293 z M 324.18253,-2.5152017e-6 h 8.88998 V 7.3105147 h -8.88998 z m 0,12.3100035152017 h 8.88998 v 32.303725 h -8.88998 z m 24.79036,18.30798 c 0.25117,5.623366 3.00708,8.186485 7.95301,8.186485 3.56728,0 6.44877,-2.187102 7.0118,-4.186896 h 7.82601 c -2.50329,7.623162 -7.82601,10.869306 -15.15249,10.869306 -10.20372,0 -16.52831,-6.995057 -16.52831,-16.994029 0,-9.683513 6.69853,-17.055995 16.52831,-17.055995 11.02075,0 16.34066,9.246937 15.71694,19.181129 z m 14.46246,-5.621958 c -0.81139,-4.499538 -2.75167,-6.873942 -7.07248,-6.873942 -5.63738,0 -7.26157,4.374198 -7.38998,6.873942 z m 15.71552,-12.686022 h 8.45112 v 5.999384 h 0.12714 c 1.62561,-4.061555 6.01133,-6.873942 10.32932,-6.873942 0.62514,0 1.37867,0.125338 1.94169,0.312644 v 8.247041 c -0.81561,-0.187306 -2.12793,-0.312644 -3.1919,-0.312644 -6.51231,0 -8.7644,4.686843 -8.7644,10.373583 v 14.557659 h -8.89283 z M 1.0033064,86.744611 C 1.5042501,78.4342 8.9534941,75.934455 16.216472,75.934455 c 6.448768,0 14.212689,1.436473 14.212689,9.184971 v 16.809544 c 0,2.93632 0.311857,5.87264 1.126065,7.18377 h -9.015575 c -0.313266,-0.99708 -0.564443,-2.06176 -0.625121,-3.12363 -2.819396,2.93633 -6.951123,3.99819 -10.895172,3.99819 -6.1355019,0 -11.01935,-3.06025 -11.01935,-9.68492 0,-7.307704 5.5103804,-8.996263 11.01935,-9.808856 5.44688,-0.749218 10.518405,-0.625287 10.518405,-4.248858 0,-3.810877 -2.630306,-4.3742 -5.760146,-4.3742 -3.379606,0 -5.571058,1.374505 -5.8843242,4.874145 z m 20.5344566,6.559892 c -1.501419,1.312542 -4.63267,1.374506 -7.387155,1.875865 -2.755895,0.561913 -5.2606135,1.498437 -5.2606135,4.748807 0,3.309515 2.5668065,4.123525 5.4482915,4.123525 6.949711,0 7.199477,-5.49944 7.199477,-7.435862 z M 47.143748,92.120116 36.499751,76.809015 h 10.143053 l 5.698058,8.437159 5.634556,-8.437159 h 9.829786 L 57.161208,91.932814 69.118944,109.11274 H 58.975895 L 52.213862,98.927871 45.453239,109.11274 h -9.955375 z m 34.2462,2.998284 c 0.249779,5.62196 3.005662,8.18508 7.9516,8.18508 3.568694,0 6.448767,-2.18851 7.011798,-4.188307 h 7.826014 c -2.50472,7.624567 -7.826014,10.872127 -15.151078,10.872127 -10.205141,0 -16.529731,-6.99647 -16.529731,-16.992624 0,-9.686331 6.699945,-17.060221 16.529731,-17.060221 11.017938,0 16.340638,9.248345 15.715518,19.183945 z m 14.462455,-5.624774 c -0.814207,-4.499538 -2.754484,-6.871125 -7.0753,-6.871125 -5.633146,0 -7.261566,4.371384 -7.387155,6.871125 z M 110.56604,64.499011 h 8.89139 v 44.613729 h -8.89139 z m 43.32527,34.117623 c 0.0607,3.872836 3.31752,5.436066 6.82272,5.436066 2.56821,0 5.82364,-1.00131 5.82364,-4.123525 0,-2.688457 -3.69428,-3.626387 -10.07955,-4.999487 -5.13361,-1.123829 -10.26864,-2.93632 -10.26864,-8.623058 0,-8.248451 7.13739,-10.372175 14.08851,-10.372175 7.07389,0 13.58475,2.374403 14.27337,10.311617 h -8.45254 c -0.24978,-3.439082 -2.88007,-4.375606 -6.07342,-4.375606 -2.00236,0 -4.94452,0.374607 -4.94452,2.998284 0,3.188403 5.00943,3.623572 10.07955,4.813588 5.1957,1.185794 10.26723,3.058842 10.26723,9.059634 0,8.494908 -7.38715,11.245328 -14.77572,11.245328 -7.51274,0 -14.83781,-2.81098 -15.21317,-11.370666 z m 28.29697,-21.806213 h 8.45114 v 4.122111 h 0.12558 c 2.12936,-3.436266 5.63456,-4.998077 9.64211,-4.998077 10.14305,0 14.71363,8.185077 14.71363,17.371455 0,8.62306 -4.75685,16.68139 -14.21128,16.68139 -3.88337,0 -7.57766,-1.68575 -9.7042,-4.87274 h -0.12416 v 15.37025 h -8.89281 z m 24.04106,16.244813 c 0,-5.122013 -2.06586,-10.432733 -7.76251,-10.432733 -5.82364,0 -7.70183,5.183976 -7.70183,10.432733 0,5.248756 2.00378,10.246836 7.76393,10.246836 5.82223,0 7.70041,-4.99808 7.70041,-10.246836 z m 14.52455,-16.244813 h 8.45113 v 5.997975 h 0.127 c 1.62701,-4.061553 6.00992,-6.873941 10.32932,-6.873941 0.62512,0 1.37724,0.125327 1.94169,0.312661 v 8.248451 c -0.81562,-0.188719 -2.12796,-0.314046 -3.19334,-0.314046 -6.51086,0 -8.7644,4.686844 -8.7644,10.373582 v 14.557657 h -8.8914 z m 26.16901,-12.31141 h 8.8914 v 7.310517 h -8.8914 z m 0.001,12.310004 h 8.89139 v 32.303725 h -8.89139 z m 17.4667,0.0014 h 8.45255 v 4.496722 h 0.18908 c 2.25495,-3.623572 6.13268,-5.372688 9.89187,-5.372688 9.45443,0 11.83215,5.310724 11.83215,13.308492 V 109.11274 H 285.8681 V 90.868132 c 0,-5.310721 -1.56916,-7.935804 -5.69947,-7.935804 -4.82176,0 -6.8848,2.685641 -6.8848,9.248345 v 16.932067 h -8.89281 z m 69.80615,30.240555 c 0,5.31354 -1.87677,14.3098 -16.77808,14.3098 -6.38668,0 -13.83311,-2.99969 -14.27196,-10.37218 h 8.82507 c 0.81563,3.31234 3.5052,4.43617 6.63786,4.43617 4.94594,0 7.13739,-3.37431 7.13739,-7.99918 v -4.24745 h -0.12416 c -1.94169,3.3743 -5.82365,4.99808 -9.70702,4.99808 -9.70419,0 -13.8331,-7.37249 -13.8331,-16.244812 0,-8.373789 4.81894,-15.996949 13.89942,-15.996949 4.25591,0 7.50993,1.437879 9.6407,5.186792 h 0.12416 v -4.312232 h 8.44972 z m -8.44972,-14.495691 c 0,-5.248757 -1.8161,-9.934194 -7.57625,-9.934194 -5.00802,0 -7.19947,4.372794 -7.19947,9.183565 0,4.62488 1.75259,9.68633 7.19947,9.68633 5.07435,0 7.57625,-4.310825 7.57625,-8.935701 z m 23.22544,2.563115 c 0.25117,5.621956 3.00708,8.185076 7.95301,8.185076 3.56728,0 6.44877,-2.18851 7.0118,-4.188303 h 7.82601 c -2.50329,7.624563 -7.82601,10.872123 -15.15249,10.872123 -10.20372,0 -16.52831,-6.99647 -16.52831,-16.99262 0,-9.686331 6.69853,-17.060221 16.52831,-17.060221 11.02075,0 16.34066,9.248345 15.71694,19.183945 z m 14.46246,-5.624774 c -0.81139,-4.499538 -2.75167,-6.871125 -7.07248,-6.871125 -5.63738,0 -7.26157,4.371384 -7.38998,6.871125 z m 15.71552,-12.683205 h 8.45112 v 5.997975 h 0.12423 c 1.62699,-4.061553 6.01132,-6.873941 10.33212,-6.873941 0.62514,0 1.37867,0.125327 1.94169,0.312661 v 8.248451 c -0.81703,-0.188719 -2.12793,-0.314046 -3.19332,-0.314046 -6.51369,0 -8.76298,4.686844 -8.76298,10.373582 v 14.557653 h -8.89283 z"
     id="Fill-9"
     fill="#1a1918"
     style="fill-rule:evenodd;stroke:none;stroke-width:3.64323" />
  <metadata
     id="metadata46">
    <rdf:RDF>
      <cc:Work
         rdf:about="">
        <dc:title>Logo</dc:title>
      </cc:Work>
    </rdf:RDF>
  </metadata>
</svg>
