<?xml version="1.0" encoding="UTF-8"?>
<svg xmlns="http://www.w3.org/2000/svg" xmlns:xlink="http://www.w3.org/1999/xlink" width="401px" height="155px" viewBox="0 0 400 155" version="1.1">
<g id="surface1">
<path style=" stroke:none;fill-rule:nonzero;fill:rgb(6.27451%,6.27451%,6.27451%);fill-opacity:1;" d="M 100.21875 77.277344 C 100.21875 70.199219 94.820312 64.585938 87.679688 64.585938 C 80.207031 64.585938 75.136719 70.394531 75.136719 77.277344 C 75.136719 84.222656 80.070312 90.109375 87.46875 90.109375 C 95.753906 90.109375 100.148438 83.621094 100.21875 77.347656 Z M 68.460938 46.085938 L 75.402344 46.085938 L 75.402344 64.992188 C 78.742188 60.246094 84.074219 58.183594 88.738281 58.109375 C 98.152344 58.109375 107.152344 65.117188 107.152344 77.214844 C 107.152344 88.902344 98.886719 96.578125 88.472656 96.578125 C 82.28125 96.578125 77.472656 93.578125 75.136719 89.230469 L 75.136719 95.507812 L 68.460938 95.507812 Z M 68.460938 46.085938 "/>
<path style=" stroke:none;fill-rule:nonzero;fill:rgb(6.27451%,6.27451%,6.27451%);fill-opacity:1;" d="M 126.097656 59.476562 L 132.628906 59.476562 L 132.628906 64.8125 C 134.691406 60.539062 138.492188 58.480469 143.441406 58.402344 L 143.441406 65.351562 L 142.964844 65.351562 C 136.429688 65.351562 133.027344 68.957031 133.027344 76.171875 L 133.027344 95.804688 L 126.097656 95.804688 Z M 126.097656 59.476562 "/>
<path style=" stroke:none;fill-rule:nonzero;fill:rgb(0%,68.235294%,93.72549%);fill-opacity:1;" d="M 161.367188 49.816406 C 161.367188 52.367188 163.421875 54.425781 165.964844 54.425781 C 168.503906 54.425781 170.558594 52.367188 170.558594 49.816406 C 170.558594 47.277344 168.503906 45.207031 165.964844 45.207031 C 163.421875 45.207031 161.367188 47.277344 161.367188 49.816406 Z M 162.832031 59.410156 L 169.765625 59.410156 L 169.765625 95.738281 L 162.832031 95.738281 Z M 162.832031 59.410156 "/>
<path style=" stroke:none;fill-rule:nonzero;fill:rgb(0%,68.235294%,93.72549%);fill-opacity:1;" d="M 189.390625 64.585938 L 182.851562 64.585938 L 182.851562 59.183594 L 189.390625 59.183594 L 189.390625 46.085938 L 196.320312 46.085938 L 196.320312 59.183594 L 203.328125 59.183594 L 203.328125 64.585938 L 196.320312 64.585938 L 196.320312 95.507812 L 189.390625 95.507812 Z M 189.390625 64.585938 "/>
<path style=" stroke:none;fill-rule:nonzero;fill:rgb(6.27451%,6.27451%,6.27451%);fill-opacity:1;" d="M 246.699219 74.441406 C 246.363281 69.621094 241.5625 64.210938 234.699219 64.34375 C 227.613281 64.34375 223.023438 69.496094 222.6875 74.441406 Z M 222.550781 79.851562 C 222.875 87.191406 229.289062 90.933594 234.761719 90.933594 C 239.621094 90.933594 243.226562 88.589844 245.230469 84.789062 L 252.429688 84.789062 C 250.699219 88.804688 248.164062 91.804688 245.09375 93.8125 C 242.023438 95.863281 238.417969 96.875 234.761719 96.875 C 222.875 96.875 215.5625 87.328125 215.5625 77.695312 C 215.5625 67.292969 223.683594 58.402344 234.699219 58.402344 C 239.886719 58.402344 244.632812 60.339844 248.101562 63.753906 C 252.367188 68.089844 254.15625 73.773438 253.570312 79.851562 Z M 222.550781 79.851562 "/>
<path style=" stroke:none;fill-rule:nonzero;fill:rgb(6.27451%,6.27451%,6.27451%);fill-opacity:1;" d="M 273.4375 59.480469 L 279.976562 59.480469 L 279.976562 65.082031 C 281.714844 61.34375 285.769531 58.335938 292.25 58.402344 C 303.851562 58.539062 306.929688 66.957031 306.929688 74.507812 L 306.929688 95.804688 L 299.917969 95.804688 L 299.917969 76.109375 C 299.917969 69.554688 297.371094 64.882812 290.308594 64.960938 C 283.507812 65.015625 280.386719 69.292969 280.386719 75.570312 L 280.386719 95.804688 L 273.4375 95.804688 Z M 273.4375 59.480469 "/>
<path style=" stroke:none;fill-rule:nonzero;fill:rgb(6.27451%,6.27451%,6.27451%);fill-opacity:1;" d="M 357.546875 74.441406 C 357.230469 69.621094 352.414062 64.210938 345.546875 64.34375 C 338.472656 64.34375 333.875 69.496094 333.539062 74.441406 Z M 333.414062 79.851562 C 333.746094 87.191406 340.148438 90.933594 345.609375 90.933594 C 350.484375 90.933594 354.089844 88.589844 356.089844 84.789062 L 363.289062 84.789062 C 361.5625 88.804688 359.011719 91.804688 355.964844 93.8125 C 352.894531 95.863281 349.285156 96.875 345.609375 96.875 C 333.746094 96.875 326.414062 87.328125 326.414062 77.695312 C 326.414062 67.292969 334.554688 58.402344 345.546875 58.402344 C 350.753906 58.402344 355.492188 60.339844 358.960938 63.753906 C 363.226562 68.089844 365.039062 73.773438 364.433594 79.851562 Z M 333.414062 79.851562 "/>
<path style=" stroke:none;fill-rule:nonzero;fill:rgb(6.27451%,6.27451%,6.27451%);fill-opacity:1;" d="M 383.476562 64.585938 L 376.941406 64.585938 L 376.941406 59.183594 L 383.476562 59.183594 L 383.476562 46.085938 L 390.425781 46.085938 L 390.425781 59.183594 L 397.417969 59.183594 L 397.417969 64.585938 L 390.425781 64.585938 L 390.425781 95.507812 L 383.476562 95.507812 Z M 383.476562 64.585938 "/>
<path style=" stroke:none;fill-rule:nonzero;fill:rgb(0%,68.235294%,93.72549%);fill-opacity:1;" d="M 0 71.453125 C 0 84.980469 10.941406 95.945312 24.441406 95.945312 C 37.953125 95.945312 48.882812 84.980469 48.882812 71.453125 C 48.882812 57.933594 37.953125 46.96875 24.441406 46.96875 C 10.941406 46.96875 0 57.933594 0 71.453125 Z M 0 71.453125 "/>
</g>
</svg>
