<?xml version="1.0" encoding="UTF-8"?>
<!DOCTYPE svg PUBLIC "-//W3C//DTD SVG 1.1//EN" "http://www.w3.org/Graphics/SVG/1.1/DTD/svg11.dtd">
<svg xmlns="http://www.w3.org/2000/svg" version="1.1" width="400px" height="400px" style="shape-rendering:geometricPrecision; text-rendering:geometricPrecision; image-rendering:optimizeQuality; fill-rule:evenodd; clip-rule:evenodd" xmlns:xlink="http://www.w3.org/1999/xlink">
<g><path style="opacity:0.994" fill="#374850" d="M 179.5,11.5 C 260.165,6.80952 321.665,38.4762 364,106.5C 398.64,173.858 396.307,239.858 357,304.5C 315.357,362.431 258.524,390.264 186.5,388C 116.296,381.182 64.4625,347.015 31,285.5C 9.91991,240.799 5.58658,194.466 18,146.5C 44.7164,68.9124 98.5497,23.9124 179.5,11.5 Z"/></g>
<g><path style="opacity:1" fill="#eeeff0" d="M 228.5,30.5 C 229.833,30.5 231.167,30.5 232.5,30.5C 230.608,39.4081 229.275,48.4081 228.5,57.5C 226.857,57.5198 225.524,56.8532 224.5,55.5C 218.034,57.7154 214.368,55.3821 213.5,48.5C 214.116,38.9941 218.616,35.9941 227,39.5C 227.953,36.5682 228.453,33.5682 228.5,30.5 Z"/></g>
<g><path style="opacity:1" fill="#ebeced" d="M 162.5,31.5 C 163.675,31.281 164.675,31.6143 165.5,32.5C 167.881,40.4044 169.881,48.4044 171.5,56.5C 170.672,57.4147 169.672,58.0814 168.5,58.5C 165.751,49.6724 163.751,40.6724 162.5,31.5 Z"/></g>
<g><path style="opacity:1" fill="#f1f2f3" d="M 194.5,36.5 C 195.833,36.5 197.167,36.5 198.5,36.5C 198.334,41.5111 198.501,46.5111 199,51.5C 201.499,52.7978 203.833,52.4644 206,50.5C 206.499,45.8452 206.666,41.1785 206.5,36.5C 207.5,36.5 208.5,36.5 209.5,36.5C 209.5,42.5 209.5,48.5 209.5,54.5C 207.876,54.6399 206.71,53.9733 206,52.5C 202.667,56.5 199.333,56.5 196,52.5C 194.603,47.2919 194.103,41.9586 194.5,36.5 Z"/></g>
<g><path style="opacity:1" fill="#f0f1f2" d="M 149.5,36.5 C 153.884,36.5236 157.218,38.3569 159.5,42C 158.892,42.8699 158.059,43.3699 157,43.5C 151.291,37.5435 147.125,38.5435 144.5,46.5C 145.264,51.3086 147.264,55.4753 150.5,59C 156.706,60.2402 159.706,57.7402 159.5,51.5C 160.5,51.5 161.5,51.5 162.5,51.5C 162.101,59.7143 157.768,63.2143 149.5,62C 145.647,59.1477 143.147,55.3144 142,50.5C 140.452,43.5721 142.952,38.9054 149.5,36.5 Z"/></g>
<g><path style="opacity:1" fill="#ebeced" d="M 179.5,36.5 C 186.112,36.2795 189.778,39.4461 190.5,46C 189.227,55.886 184.393,58.386 176,53.5C 171.861,46.5982 173.027,40.9315 179.5,36.5 Z"/></g>
<g><path style="opacity:1" fill="#eceeee" d="M 250.5,39.5 C 255.447,38.6276 259.613,39.9609 263,43.5C 263.814,45.9018 263.647,48.2351 262.5,50.5C 262.167,50.3333 261.833,50.1667 261.5,50C 261.217,43.3894 257.883,41.056 251.5,43C 246.81,47.6734 245.477,53.1734 247.5,59.5C 250.682,62.2953 253.682,62.1286 256.5,59C 261.102,58.2435 261.436,59.5768 257.5,63C 248.929,66.3828 243.929,63.5495 242.5,54.5C 242.927,48.1514 245.594,43.1514 250.5,39.5 Z"/></g>
<g><path style="opacity:1" fill="#3c4c54" d="M 179.5,39.5 C 182.325,39.0807 184.491,40.0807 186,42.5C 187.023,46.3169 186.523,49.8169 184.5,53C 181.692,53.9201 179.525,53.0867 178,50.5C 177.013,46.5252 177.513,42.8585 179.5,39.5 Z"/></g>
<g><path style="opacity:1" fill="#3a4b53" d="M 220.5,40.5 C 224.513,39.832 226.513,41.4987 226.5,45.5C 226.519,48.2057 225.852,50.7057 224.5,53C 217.991,53.8764 215.824,51.0431 218,44.5C 218.662,43.0161 219.496,41.6828 220.5,40.5 Z"/></g>
<g><path style="opacity:1" fill="#edeeef" d="M 269.5,53.5 C 279.552,54.0612 282.052,58.7279 277,67.5C 273.501,65.7515 270.168,63.7515 267,61.5C 264.693,67.5242 266.859,70.5242 273.5,70.5C 273.5,71.5 273.5,72.5 273.5,73.5C 264.986,73.157 261.486,68.8237 263,60.5C 264.694,57.6424 266.861,55.309 269.5,53.5 Z"/></g>
<g><path style="opacity:1" fill="#eef0f0" d="M 122.5,54.5 C 127.228,54.3755 130.561,56.5421 132.5,61C 129.337,63.4157 126.004,65.5823 122.5,67.5C 123.337,69.5053 124.837,70.5053 127,70.5C 130.032,69.8952 132.532,68.7286 134.5,67C 134.833,67.3333 135.167,67.6667 135.5,68C 132.074,73.5407 127.408,74.874 121.5,72C 115.849,65.5551 116.182,59.7218 122.5,54.5 Z"/></g>
<g><path style="opacity:1" fill="#3f4f57" d="M 270.5,56.5 C 274.509,56.0136 276.342,57.6803 276,61.5C 273.245,62.0685 270.745,61.2351 268.5,59C 269.381,58.2917 270.047,57.4584 270.5,56.5 Z"/></g>
<g><path style="opacity:1" fill="#f1f2f2" d="M 104.5,56.5 C 109.47,62.985 114.303,69.6517 119,76.5C 119.886,79.4402 119.052,80.4402 116.5,79.5C 112.196,72.6968 107.696,66.0301 103,59.5C 102.761,58.212 103.261,57.212 104.5,56.5 Z"/></g>
<g><path style="opacity:1" fill="#42525a" d="M 123.5,57.5 C 125.311,57.572 126.644,58.4053 127.5,60C 125.944,62.0515 123.944,63.5515 121.5,64.5C 119.911,61.4116 120.578,59.0783 123.5,57.5 Z"/></g>
<g><path style="opacity:1" fill="#f1f2f3" d="M 285.5,61.5 C 287.952,63.2302 290.619,64.7302 293.5,66C 292.874,66.7504 292.374,67.5838 292,68.5C 290.401,66.9644 288.567,66.4644 286.5,67C 284.542,69.7482 282.709,72.5815 281,75.5C 279.89,77.0368 278.39,77.7035 276.5,77.5C 278.962,71.9135 281.962,66.5802 285.5,61.5 Z"/></g>
<g><path style="opacity:1" fill="#edeeef" d="M 300.5,65.5 C 304.403,67.1528 304.403,68.9861 300.5,71C 302.421,72.2408 302.754,73.7408 301.5,75.5C 299.902,73.0266 298.402,73.0266 297,75.5C 294.971,78.0292 293.138,80.6959 291.5,83.5C 294.104,86.5669 293.438,87.5669 289.5,86.5C 288.359,84.5787 288.192,82.5787 289,80.5C 292.888,76.7272 295.054,72.3939 295.5,67.5C 297.867,68.822 299.533,68.1553 300.5,65.5 Z"/></g>
<g><path style="opacity:1" fill="#eeeff0" d="M 100.5,68.5 C 104.449,71.618 107.949,75.2847 111,79.5C 117.716,86.9709 116.383,92.6375 107,96.5C 105.164,94.0382 105.997,92.5382 109.5,92C 113.182,89.6541 113.348,87.1541 110,84.5C 105.515,92.0349 100.515,92.3683 95,85.5C 91.598,81.051 91.7647,76.8844 95.5,73C 97.1341,72.5065 98.8008,72.3398 100.5,72.5C 100.5,71.1667 100.5,69.8333 100.5,68.5 Z"/></g>
<g><path style="opacity:1" fill="#dcdfe0" d="M 312.5,70.5 C 316.095,71.9051 316.262,73.5717 313,75.5C 309.98,74.1781 309.813,72.5114 312.5,70.5 Z"/></g>
<g><path style="opacity:1" fill="#f4b919" d="M 186.5,71.5 C 250.108,69.683 294.608,97.683 320,155.5C 337.099,211.845 323.932,259.678 280.5,299C 234.16,332.78 185.494,336.447 134.5,310C 89.9837,281.137 69.1503,239.97 72,186.5C 80.0791,133.757 108.912,97.5908 158.5,78C 167.86,75.3654 177.193,73.1988 186.5,71.5 Z"/></g>
<g><path style="opacity:1" fill="#3a4a52" d="M 97.5,74.5 C 99.1992,74.3398 100.866,74.5065 102.5,75C 105.503,77.6088 107.003,80.7754 107,84.5C 100.936,87.6684 97.4362,85.6684 96.5,78.5C 96.6233,77.0755 96.9566,75.7421 97.5,74.5 Z"/></g>
<g><path style="opacity:1" fill="#f1f2f2" d="M 306.5,76.5 C 309.465,77.5823 309.965,79.2489 308,81.5C 304.281,85.5726 300.447,89.0726 296.5,92C 295.549,91.2825 295.383,90.4491 296,89.5C 299.737,85.2733 303.237,80.94 306.5,76.5 Z"/></g>
<g><path style="opacity:1" fill="#eceeef" d="M 318.5,80.5 C 322.224,79.7731 324.891,81.1064 326.5,84.5C 326,84.8333 325.5,85.1667 325,85.5C 322.066,82.547 319.899,83.047 318.5,87C 319.674,90.9729 318.674,91.4729 315.5,88.5C 311.542,91.9567 307.708,95.6233 304,99.5C 303.167,98.6667 302.333,97.8333 301.5,97C 304.701,93.4636 308.201,90.2969 312,87.5C 312.034,85.8204 312.201,84.3204 312.5,83C 315.215,84.1482 317.215,83.3149 318.5,80.5 Z"/></g>
<g><path style="opacity:1" fill="#edeeef" d="M 82.5,85.5 C 91.8287,84.997 96.3287,89.3304 96,98.5C 91.0502,104.778 85.7169,105.111 80,99.5C 76.1608,93.8696 76.9942,89.2029 82.5,85.5 Z"/></g>
<g><path style="opacity:1" fill="#3e4e56" d="M 82.5,88.5 C 88.196,88.0301 91.8627,90.5301 93.5,96C 90.8313,101.369 87.3313,101.869 83,97.5C 80.1443,94.5311 79.9776,91.5311 82.5,88.5 Z"/></g>
<g><path style="opacity:1" fill="#e9ebec" d="M 328.5,87.5 C 332.095,88.9051 332.262,90.5717 329,92.5C 328.167,91.6667 327.333,90.8333 326.5,90C 327.381,89.2917 328.047,88.4584 328.5,87.5 Z"/></g>
<g><path style="opacity:1" fill="#edeeef" d="M 322.5,92.5 C 324.273,93.3143 324.773,94.6476 324,96.5C 319.667,100.167 315.333,103.833 311,107.5C 309.635,106.407 309.301,105.074 310,103.5C 314.36,99.9681 318.527,96.3014 322.5,92.5 Z"/></g>
<g><path style="opacity:1" fill="#eff1f1" d="M 68.5,101.5 C 76.5077,100.16 81.5077,103.327 83.5,111C 79.2896,121.333 73.4563,122.167 66,113.5C 63.6678,108.83 64.5011,104.83 68.5,101.5 Z"/></g>
<g><path style="opacity:1" fill="#fefefe" d="M 188.5,102.5 C 236.197,100.248 270.031,120.581 290,163.5C 304.268,206.261 295.101,243.095 262.5,274C 230.579,298.324 195.913,302.991 158.5,288C 122.361,269.491 103.694,239.824 102.5,199C 104.233,156.286 124.567,126.286 163.5,109C 171.762,106.019 180.095,103.853 188.5,102.5 Z"/></g>
<g><path style="opacity:1" fill="#eceeee" d="M 324.5,102.5 C 330.19,102.023 333.857,104.523 335.5,110C 335.172,113.829 333.172,116.329 329.5,117.5C 327.115,115.116 325.115,112.45 323.5,109.5C 322.998,108.479 322.332,108.312 321.5,109C 320.57,110.194 319.903,111.527 319.5,113C 320.402,115.899 322.069,118.232 324.5,120C 324.167,120.5 323.833,121 323.5,121.5C 316.915,118.667 315.081,114 318,107.5C 320.326,105.934 322.492,104.268 324.5,102.5 Z"/></g>
<g><path style="opacity:1" fill="#3c4c54" d="M 69.5,104.5 C 72.7935,104.259 75.7935,105.092 78.5,107C 81.9366,113.573 79.9366,116.24 72.5,115C 71,113.5 69.5,112 68,110.5C 67.2516,108.16 67.7516,106.16 69.5,104.5 Z"/></g>
<g><path style="opacity:1" fill="#47575e" d="M 326.5,105.5 C 332.414,106.316 333.581,108.983 330,113.5C 327.325,111.185 326.159,108.518 326.5,105.5 Z"/></g>
<g><path style="opacity:1" fill="#eef0f0" d="M 52.5,116.5 C 61.4785,115.988 61.8119,117.155 53.5,120C 49.8947,123.315 49.5614,126.982 52.5,131C 56.4628,133.83 60.7961,135.163 65.5,135C 70.9061,130.805 70.7395,126.972 65,123.5C 64.3333,124.833 63.6667,126.167 63,127.5C 62.3333,128.833 61.6667,128.833 61,127.5C 60.781,124.267 61.9477,121.601 64.5,119.5C 73.7108,123.209 75.0442,129.042 68.5,137C 60.223,139.622 53.3897,137.455 48,130.5C 46.4543,124.794 47.9543,120.127 52.5,116.5 Z"/></g>
<g><path style="opacity:1" fill="#eef0f0" d="M 334.5,118.5 C 340.904,118.068 344.404,121.068 345,127.5C 347.421,126.039 349.921,124.706 352.5,123.5C 353.5,123.833 354.167,124.5 354.5,125.5C 346.996,130.087 339.329,134.42 331.5,138.5C 329.722,134.885 327.722,131.385 325.5,128C 327.342,123.66 330.342,120.493 334.5,118.5 Z"/></g>
<g><path style="opacity:1" fill="#3d4d55" d="M 334.5,122.5 C 340.472,121.309 342.805,123.476 341.5,129C 338.671,130.247 336.005,131.747 333.5,133.5C 329.532,132.04 328.532,129.374 330.5,125.5C 331.901,124.479 333.235,123.479 334.5,122.5 Z"/></g>
<g><path style="opacity:1" fill="#e74737" d="M 227.5,161.5 C 223.773,166.23 219.44,170.23 214.5,173.5C 205.615,168.4 196.615,168.233 187.5,173C 186.29,174.039 185.29,175.206 184.5,176.5C 176.062,175.59 168.062,176.923 160.5,180.5C 169.231,157.299 185.898,147.799 210.5,152C 217.136,153.646 222.803,156.813 227.5,161.5 Z"/></g>
<g><path style="opacity:1" fill="#aab8bf" d="M 44.5,162.5 C 50.1954,162.632 51.8621,165.298 49.5,170.5C 47.0444,173.08 44.5444,173.08 42,170.5C 40.8366,167.029 41.6699,164.362 44.5,162.5 Z"/></g>
<g><path style="opacity:1" fill="#557ebe" d="M 227.5,161.5 C 234.124,166.643 238.624,173.31 241,181.5C 255.653,195.025 257.319,210.025 246,226.5C 240.757,232.142 234.257,235.309 226.5,236C 217.84,236.5 209.173,236.666 200.5,236.5C 200.5,230.167 200.5,223.833 200.5,217.5C 210.273,217.948 219.939,217.448 229.5,216C 235.728,209.953 236.062,203.62 230.5,197C 228.35,195.589 226.016,194.755 223.5,194.5C 223.517,186.201 220.517,179.201 214.5,173.5C 219.44,170.23 223.773,166.23 227.5,161.5 Z"/></g>
<g><path style="opacity:1" fill="#aab8bf" d="M 351.5,162.5 C 357.195,162.632 358.862,165.298 356.5,170.5C 354.044,173.08 351.544,173.08 349,170.5C 347.837,167.029 348.67,164.362 351.5,162.5 Z"/></g>
<g><path style="opacity:1" fill="#fefefd" d="M 214.5,173.5 C 220.517,179.201 223.517,186.201 223.5,194.5C 226.016,194.755 228.35,195.589 230.5,197C 236.062,203.62 235.728,209.953 229.5,216C 219.939,217.448 210.273,217.948 200.5,217.5C 191.083,217.805 181.75,217.472 172.5,216.5C 163.657,210.108 163.324,203.274 171.5,196C 178.585,193.128 184.085,194.961 188,201.5C 192.5,197 197,192.5 201.5,188C 196.736,182.634 191.069,178.8 184.5,176.5C 185.29,175.206 186.29,174.039 187.5,173C 196.615,168.233 205.615,168.4 214.5,173.5 Z"/></g>
<g><path style="opacity:1" fill="#f5ba1b" d="M 184.5,176.5 C 191.069,178.8 196.736,182.634 201.5,188C 197,192.5 192.5,197 188,201.5C 184.085,194.961 178.585,193.128 171.5,196C 163.324,203.274 163.657,210.108 172.5,216.5C 168.5,221.167 164.167,225.5 159.5,229.5C 151.021,224.129 147.021,216.296 147.5,206C 147.752,195.329 152.085,186.829 160.5,180.5C 168.062,176.923 176.062,175.59 184.5,176.5 Z"/></g>
<g><path style="opacity:1" fill="#a8b6bd" d="M 40.5,196.5 C 47.2973,197.107 48.9639,200.274 45.5,206C 37.4079,206.09 35.7412,202.923 40.5,196.5 Z"/></g>
<g><path style="opacity:1" fill="#a9b7be" d="M 354.5,196.5 C 359.283,196.449 361.45,198.782 361,203.5C 357.952,207.482 354.952,207.482 352,203.5C 351.333,202.167 351.333,200.833 352,199.5C 353.045,198.627 353.878,197.627 354.5,196.5 Z"/></g>
<g><path style="opacity:1" fill="#35a852" d="M 172.5,216.5 C 181.75,217.472 191.083,217.805 200.5,217.5C 200.5,223.833 200.5,230.167 200.5,236.5C 191.494,236.666 182.494,236.5 173.5,236C 167.88,235.638 163.213,233.472 159.5,229.5C 164.167,225.5 168.5,221.167 172.5,216.5 Z"/></g>
<g><path style="opacity:1" fill="#abb9c0" d="M 45.5,233.5 C 52.6758,232.985 54.3425,235.818 50.5,242C 43.4159,242.475 41.7492,239.642 45.5,233.5 Z"/></g>
<g><path style="opacity:1" fill="#abb9c1" d="M 347.5,233.5 C 354.997,232.804 356.997,235.637 353.5,242C 346.781,242.726 344.781,239.893 347.5,233.5 Z"/></g>
<g><path style="opacity:1" fill="#abb9c0" d="M 57.5,266.5 C 63.4964,265.333 65.9964,267.666 65,273.5C 57.6753,276.68 55.1753,274.347 57.5,266.5 Z"/></g>
<g><path style="opacity:1" fill="#acbac1" d="M 335.5,266.5 C 342.486,266.331 344.153,269.164 340.5,275C 333.409,275.396 331.742,272.562 335.5,266.5 Z"/></g>
<g><path style="opacity:1" fill="#464f4b" d="M 141.5,290.5 C 145.856,291.556 147.689,294.222 147,298.5C 144.717,299.719 142.384,299.719 140,298.5C 138.907,300.298 137.407,301.132 135.5,301C 137.903,297.689 139.903,294.189 141.5,290.5 Z"/></g>
<g><path style="opacity:1" fill="#e2ae1e" d="M 142.5,292.5 C 145.574,293.421 146.574,295.254 145.5,298C 140.373,298.377 139.373,296.543 142.5,292.5 Z"/></g>
<g><path style="opacity:1" fill="#4c5349" d="M 258.5,289.5 C 260.636,291.812 262.636,294.312 264.5,297C 266.655,297.116 268.655,296.783 270.5,296C 268.759,297.62 266.925,299.12 265,300.5C 262.306,297.108 260.14,293.441 258.5,289.5 Z"/></g>
<g><path style="opacity:1" fill="#49514a" d="M 151.5,296.5 C 153.84,297.086 156.007,298.086 158,299.5C 159.033,302.217 158.2,304.051 155.5,305C 156.747,306.458 156.747,307.958 155.5,309.5C 154.833,310.833 154.167,310.833 153.5,309.5C 154.309,307.929 154.643,306.262 154.5,304.5C 153.178,304.67 152.011,304.337 151,303.5C 150.077,304.759 149.243,306.092 148.5,307.5C 148.167,307.167 147.833,306.833 147.5,306.5C 149.036,303.222 150.369,299.889 151.5,296.5 Z"/></g>
<g><path style="opacity:1" fill="#eab21b" d="M 152.5,298.5 C 155.484,298.787 156.817,300.454 156.5,303.5C 152.363,303.719 151.029,302.053 152.5,298.5 Z"/></g>
<g><path style="opacity:1" fill="#49514a" d="M 250.5,294.5 C 254.542,296.362 258.208,298.862 261.5,302C 261,302.5 260.5,303 260,303.5C 256.183,300.569 253.849,301.569 253,306.5C 251.571,302.69 250.737,298.69 250.5,294.5 Z"/></g>
<g><path style="opacity:1" fill="#d7a721" d="M 252.5,296.5 C 256.483,298.268 256.816,299.935 253.5,301.5C 252.548,299.955 252.215,298.288 252.5,296.5 Z"/></g>
<g><path style="opacity:1" fill="#a3b1b8" d="M 306.5,302.5 C 307.376,302.369 308.043,302.702 308.5,303.5C 307.352,305.149 306.019,306.649 304.5,308C 308,311.5 311.5,315 315,318.5C 315.749,319.635 315.583,320.635 314.5,321.5C 310.682,318.182 307.015,314.682 303.5,311C 302.5,310.333 301.5,310.333 300.5,311C 299.457,312.976 298.123,313.476 296.5,312.5C 299.548,308.785 302.881,305.452 306.5,302.5 Z"/></g>
<g><path style="opacity:1" fill="#525648" d="M 163.5,301.5 C 169.764,302.36 171.598,305.694 169,311.5C 164.73,315.908 161.564,315.242 159.5,309.5C 159.892,306.299 161.226,303.633 163.5,301.5 Z"/></g>
<g><path style="opacity:1" fill="#ecb41a" d="M 163.5,303.5 C 166.261,302.915 167.927,303.915 168.5,306.5C 168.619,311.573 166.452,313.24 162,311.5C 161.282,308.593 161.782,305.926 163.5,303.5 Z"/></g>
<g><path style="opacity:1" fill="#a5b3ba" d="M 89.5,305.5 C 97.3022,304.635 100.636,307.968 99.5,315.5C 98.9984,316.521 98.3317,316.688 97.5,316C 97.3744,314.026 97.2078,311.859 97,309.5C 94.7162,307.016 92.2162,306.849 89.5,309C 88,310.5 86.5,312 85,313.5C 83.3672,319.697 85.5339,322.031 91.5,320.5C 92.3081,320.808 92.9747,321.308 93.5,322C 90.2536,325.16 86.9203,325.16 83.5,322C 80.7649,314.94 82.7649,309.44 89.5,305.5 Z"/></g>
<g><path style="opacity:1" fill="#47504b" d="M 227.5,303.5 C 233.74,303.294 236.24,306.294 235,312.5C 231.527,316.717 228.527,316.384 226,311.5C 225.109,308.502 225.609,305.836 227.5,303.5 Z"/></g>
<g><path style="opacity:1" fill="#ebb31b" d="M 228.5,304.5 C 230.39,304.297 231.89,304.963 233,306.5C 233.497,308.81 233.663,311.143 233.5,313.5C 228.973,314.474 226.64,312.641 226.5,308C 226.978,306.697 227.645,305.531 228.5,304.5 Z"/></g>
<g><path style="opacity:1" fill="#4c534a" d="M 243.5,297.5 C 246.088,300.489 248.088,303.989 249.5,308C 249,308.5 248.5,309 248,309.5C 245.333,307.5 242.667,305.5 240,303.5C 240.349,306.062 241.183,308.562 242.5,311C 242.167,311.167 241.833,311.333 241.5,311.5C 238.908,308.042 237.575,304.376 237.5,300.5C 240.596,302.131 243.43,304.131 246,306.5C 245.304,303.562 244.47,300.562 243.5,297.5 Z"/></g>
<g><path style="opacity:1" fill="#4f5449" d="M 196.5,307.5 C 198.792,307.244 200.959,307.577 203,308.5C 203.667,309.167 203.667,309.833 203,310.5C 201.069,307.895 199.236,307.895 197.5,310.5C 199.128,312.319 201.128,313.653 203.5,314.5C 204.205,318.933 202.205,320.433 197.5,319C 195.842,318.275 195.342,317.108 196,315.5C 197.959,318.789 200.125,319.123 202.5,316.5C 200.755,314.541 198.589,313.208 196,312.5C 195.36,310.735 195.527,309.068 196.5,307.5 Z"/></g>
<g><path style="opacity:1" fill="#4c534a" d="M 219.5,305.5 C 220.222,305.918 220.722,306.584 221,307.5C 221.781,310.834 222.114,314.167 222,317.5C 220.217,313.755 219.384,309.755 219.5,305.5 Z"/></g>
<g><path style="opacity:1" fill="#555848" d="M 184.5,306.5 C 187.271,306.421 189.937,306.921 192.5,308C 190.527,308.495 188.527,308.662 186.5,308.5C 186.5,309.833 186.5,311.167 186.5,312.5C 188.199,312.34 189.866,312.506 191.5,313C 189.527,313.495 187.527,313.662 185.5,313.5C 185.5,314.833 185.5,316.167 185.5,317.5C 187.604,317.201 189.604,317.534 191.5,318.5C 189.516,319.706 187.516,319.706 185.5,318.5C 184.509,314.555 184.176,310.555 184.5,306.5 Z"/></g>
<g><path style="opacity:1" fill="#4f5549" d="M 209.5,306.5 C 211.467,306.261 213.301,306.594 215,307.5C 215.667,308.167 215.667,308.833 215,309.5C 212.778,306.697 210.945,306.863 209.5,310C 210.992,311.885 212.992,312.885 215.5,313C 217.353,316.447 216.353,318.28 212.5,318.5C 209.818,318.923 208.652,317.923 209,315.5C 210.444,317.155 212.278,317.822 214.5,317.5C 214.67,316.178 214.337,315.011 213.5,314C 207.774,313.495 206.441,310.995 209.5,306.5 Z"/></g>
<g><path style="opacity:1" fill="#515648" d="M 174.5,304.5 C 177.34,304.898 180.007,305.731 182.5,307C 180.203,307.018 177.869,306.851 175.5,306.5C 175.5,307.833 175.5,309.167 175.5,310.5C 177.429,310.231 179.095,310.731 180.5,312C 178.765,312.651 177.098,312.485 175.5,311.5C 174.573,313.113 173.739,314.779 173,316.5C 172.739,312.399 173.239,308.399 174.5,304.5 Z"/></g>
<g><path style="opacity:1" fill="#a4b2b9" d="M 105.5,314.5 C 107.914,315.777 108.081,317.443 106,319.5C 103.167,323 100.333,326.5 97.5,330C 99.3884,332.19 101.555,334.023 104,335.5C 104.688,336.332 104.521,336.998 103.5,337.5C 100.19,335.518 97.1897,333.185 94.5,330.5C 98.1921,325.149 101.859,319.815 105.5,314.5 Z"/></g>
<g><path style="opacity:1" fill="#a3b1b8" d="M 291.5,315.5 C 294.596,314.907 296.929,315.907 298.5,318.5C 295.943,318.782 293.277,318.949 290.5,319C 289.57,320.194 288.903,321.527 288.5,323C 289.998,326.327 291.998,329.327 294.5,332C 300.896,333.108 303.229,330.608 301.5,324.5C 302.5,324.5 303.5,324.5 304.5,324.5C 305.334,332.164 302,335.664 294.5,335C 288.392,331.564 285.892,326.397 287,319.5C 288.397,317.93 289.897,316.596 291.5,315.5 Z"/></g>
<g><path style="opacity:1" fill="#a5b3ba" d="M 115.5,325.5 C 123.993,324.492 127.493,328.158 126,336.5C 123.843,343.339 119.343,345.839 112.5,344C 109.208,341.588 108.041,338.421 109,334.5C 110.686,331.117 112.853,328.117 115.5,325.5 Z"/></g>
<g><path style="opacity:1" fill="#394a52" d="M 117.5,327.5 C 121.223,327.223 123.556,328.89 124.5,332.5C 123.608,337.379 120.941,340.713 116.5,342.5C 113.5,342.167 111.833,340.5 111.5,337.5C 112.49,333.513 114.49,330.18 117.5,327.5 Z"/></g>
<g><path style="opacity:1" fill="#a3b2b9" d="M 280.5,323.5 C 281.776,324.386 281.776,325.386 280.5,326.5C 278.167,328 275.833,329.5 273.5,331C 274.313,332.803 275.48,334.303 277,335.5C 279.581,334.583 281.914,333.249 284,331.5C 284.5,332 285,332.5 285.5,333C 283.595,334.87 281.428,336.37 279,337.5C 278.583,340.114 279.583,342.114 282,343.5C 284.818,342.09 287.485,340.423 290,338.5C 290.167,339 290.333,339.5 290.5,340C 287.297,342.862 283.797,345.362 280,347.5C 276.953,341.902 273.786,336.402 270.5,331C 273.692,328.245 277.025,325.745 280.5,323.5 Z"/></g>
<g><path style="opacity:1" fill="#a6b5bc" d="M 132.5,332.5 C 133.756,332.461 134.756,332.961 135.5,334C 133.233,338.535 131.233,343.202 129.5,348C 131.959,353.241 135.125,353.741 139,349.5C 140.357,345.254 142.19,341.254 144.5,337.5C 145.5,337.833 146.167,338.5 146.5,339.5C 144.2,344.606 141.533,349.44 138.5,354C 130.282,355.115 126.782,351.615 128,343.5C 130.066,340.039 131.566,336.373 132.5,332.5 Z"/></g>
<g><path style="opacity:1" fill="#a5b3ba" d="M 266.5,331.5 C 267.776,332.386 267.776,333.386 266.5,334.5C 264.998,335.083 263.665,335.916 262.5,337C 264.833,342 267.167,347 269.5,352C 268.975,352.692 268.308,353.192 267.5,353.5C 264.844,348.189 262.178,342.856 259.5,337.5C 257.588,339.156 255.588,339.489 253.5,338.5C 258.023,336.407 262.356,334.074 266.5,331.5 Z"/></g>
<g><path style="opacity:1" fill="#a4b2ba" d="M 150.5,340.5 C 162.739,341.537 165.905,347.537 160,358.5C 158.581,359.46 157.081,360.293 155.5,361C 152.122,361.048 148.789,360.548 145.5,359.5C 146.963,353.111 148.63,346.778 150.5,340.5 Z"/></g>
<g><path style="opacity:1" fill="#a7b5bc" d="M 247.5,339.5 C 248.5,339.5 249.5,339.5 250.5,339.5C 251.493,344.313 252.993,348.98 255,353.5C 255.798,355.259 255.631,356.926 254.5,358.5C 251.576,352.395 249.243,346.062 247.5,339.5 Z"/></g>
<g><path style="opacity:1" fill="#3c4d55" d="M 152.5,343.5 C 158.33,343.161 160.83,345.827 160,351.5C 158.339,358.596 154.505,360.262 148.5,356.5C 149.838,352.154 151.171,347.821 152.5,343.5 Z"/></g>
<g><path style="opacity:1" fill="#a5b3ba" d="M 239.5,343.5 C 240.209,342.596 241.209,342.263 242.5,342.5C 243.991,348.799 245.325,355.132 246.5,361.5C 245.5,361.5 244.5,361.5 243.5,361.5C 243.167,358.833 242.833,356.167 242.5,353.5C 239.762,353.851 237.096,354.518 234.5,355.5C 233.55,357.598 233.55,359.765 234.5,362C 234.167,362.833 233.833,363.667 233.5,364.5C 233.167,364.167 232.833,363.833 232.5,363.5C 230.906,357.622 229.24,351.788 227.5,346C 228.784,345.316 229.951,345.483 231,346.5C 231.511,348.878 232.178,351.212 233,353.5C 235.738,352.518 238.572,351.852 241.5,351.5C 241.198,348.627 240.531,345.961 239.5,343.5 Z"/></g>
<g><path style="opacity:1" fill="#a7b5bc" d="M 180.5,347.5 C 181.833,347.5 183.167,347.5 184.5,347.5C 185.513,353.555 186.847,359.555 188.5,365.5C 188.167,366.167 187.833,366.833 187.5,367.5C 186.218,365.821 185.218,363.987 184.5,362C 181.833,361.333 179.167,361.333 176.5,362C 175.778,364.741 174.112,365.741 171.5,365C 175.164,359.505 178.164,353.671 180.5,347.5 Z"/></g>
<g><path style="opacity:1" fill="#a3b1b8" d="M 192.5,347.5 C 196.876,347.114 201.043,347.781 205,349.5C 207.291,352.835 206.791,355.668 203.5,358C 204.667,358.5 205.5,359.333 206,360.5C 206.497,362.81 206.663,365.143 206.5,367.5C 205.5,367.5 204.5,367.5 203.5,367.5C 205.167,360.5 202.5,357.833 195.5,359.5C 195.5,362.167 195.5,364.833 195.5,367.5C 194.5,367.5 193.5,367.5 192.5,367.5C 192.5,360.833 192.5,354.167 192.5,347.5 Z"/></g>
<g><path style="opacity:1" fill="#a6b4bb" d="M 215.5,346.5 C 220.494,345.813 223.494,347.813 224.5,352.5C 222.18,351.276 219.847,349.942 217.5,348.5C 215.234,348.931 213.734,350.264 213,352.5C 212.623,356.451 213.457,360.118 215.5,363.5C 219.856,365.492 222.189,364.159 222.5,359.5C 223.5,359.5 224.5,359.5 225.5,359.5C 226.026,362.808 224.693,364.974 221.5,366C 217.726,367.183 214.559,366.349 212,363.5C 210.466,359.289 210.133,354.956 211,350.5C 212.25,348.807 213.75,347.473 215.5,346.5 Z"/></g>
<g><path style="opacity:1" fill="#374850" d="M 195.5,350.5 C 197.857,350.337 200.19,350.503 202.5,351C 203.833,352.667 203.833,354.333 202.5,356C 200.19,356.497 197.857,356.663 195.5,356.5C 195.5,354.5 195.5,352.5 195.5,350.5 Z"/></g>
<g><path style="opacity:1" fill="#46575e" d="M 181.5,351.5 C 183.397,353.698 184.397,356.364 184.5,359.5C 182.5,359.5 180.5,359.5 178.5,359.5C 178.94,356.62 179.94,353.954 181.5,351.5 Z"/></g>
</svg>
