<svg xmlns="http://www.w3.org/2000/svg" viewBox="0 0 427.87 281.75"><defs><style>.a{fill:#00e1e1;}</style></defs><path d="M134.34,241.66H108.72v-6.1h36.35v2.55l-25.62,35.82h25.62V280H108.72v-2.54Zm232.43,13.28c-9.6-2.06-11.35-4.26-11.35-8s3.56-6.43,8.67-6.43a18.48,18.48,0,0,1,12.19,4.6l.49.39,3.59-4.76-.46-.37a23.26,23.26,0,0,0-15.69-5.48c-8.64,0-14.91,5.25-14.91,12.61,0,8.2,6,11.19,15.1,13.16s10.85,4.11,10.85,7.81c0,4-3.75,6.81-9.11,6.81-5.6,0-9.81-1.74-14.53-6l-.46-.42-3.83,4.54.44.39A26,26,0,0,0,366,280.9c9.11,0,15.47-5.31,15.47-13C381.43,261,377.05,257.18,366.77,254.94ZM284,266.7A17.84,17.84,0,1,1,284,249l5.2-3a23.87,23.87,0,1,0,0,23.77ZM55.78,280h6.65l15.31-35.89L93.06,280h6.65L80.78,235.6h-9s2.67.67.62,5.5Zm240.44,0h6.65l15.31-35.89L333.5,280h6.65l-18.93-44.4h-9s2.66.67.62,5.5ZM0,235.6a4.32,4.32,0,0,1,2.73,3.17,27,27,0,0,1,.45,6V280H10.1V260.63H35.63V280h6.92V235.6H35.63v19.31H10.1V235.6Zm159.13,0a4.32,4.32,0,0,1,2.73,3.17,27.33,27.33,0,0,1,.45,6V280h29.22v-6H169.24V260.6h21v-5.66h-21V241.63H191.5v-6Zm48.78,0a4.32,4.32,0,0,1,2.72,3.18,27,27,0,0,1,.46,6V280H238.2v-6H218V235.6ZM413,280V241.51h14.87V235.6H391v5.91H406v29.31a27.16,27.16,0,0,1-.45,6,4.32,4.32,0,0,1-2.73,3.18Z"/><path class="a" d="M314,139.51h-.58c-9.11,0-18.75-9.64-18.75-18.75v-.58h-1.4v.58c0,9.11-9.64,18.75-18.76,18.75h-.57v1.4h.57c9.12,0,18.76,9.64,18.76,18.76v.58h1.4v-.58c0-9.12,9.64-18.76,18.75-18.76H314v-1.4Z"/><path class="a" d="M153.71,19.33h-.58c-9.11,0-18.75-9.64-18.75-18.76V0H133V.57c0,9.12-9.64,18.76-18.76,18.76h-.57v1.4h.57c9.12,0,18.76,9.64,18.76,18.76v.57h1.4v-.57c0-9.12,9.64-18.76,18.75-18.76h.58v-1.4Z"/><path class="a" d="M153.71,59.39h-.58c-9.11,0-18.75-9.64-18.75-18.76v-.57H133v.57c0,9.12-9.64,18.76-18.76,18.76h-.57v1.4h.57c9.12,0,18.76,9.64,18.76,18.76v.57h1.4v-.57c0-9.12,9.64-18.76,18.75-18.76h.58v-1.4Z"/><path class="a" d="M193.77,59.39h-.58c-9.11,0-18.75-9.64-18.75-18.76v-.57H173v.57c0,9.12-9.64,18.76-18.76,18.76h-.57v1.4h.57c9.12,0,18.76,9.64,18.76,18.76v.57h1.4v-.57c0-9.12,9.64-18.76,18.75-18.76h.58v-1.4Z"/><path class="a" d="M153.71,99.45h-.58c-9.11,0-18.75-9.64-18.75-18.75v-.58H133v.58c0,9.11-9.64,18.75-18.76,18.75h-.57v1.4h.57c9.12,0,18.76,9.64,18.76,18.76v.57h1.4v-.57c0-9.12,9.64-18.76,18.75-18.76h.58v-1.4Z"/><path class="a" d="M193.77,99.45h-.58c-9.11,0-18.75-9.64-18.75-18.75v-.58H173v.58c0,9.11-9.64,18.75-18.76,18.75h-.57v1.4h.57c9.12,0,18.76,9.64,18.76,18.76v.57h1.4v-.57c0-9.12,9.64-18.76,18.75-18.76h.58v-1.4Z"/><path class="a" d="M233.83,99.45h-.58c-9.11,0-18.75-9.64-18.75-18.75v-.58h-1.4v.58c0,9.11-9.64,18.75-18.76,18.75h-.57v1.4h.57c9.12,0,18.76,9.64,18.76,18.76v.57h1.4v-.57c0-9.12,9.64-18.76,18.75-18.76h.58v-1.4Z"/><path class="a" d="M153.71,139.51h-.58c-9.11,0-18.75-9.64-18.75-18.75v-.58H133v.58c0,9.11-9.64,18.75-18.76,18.75h-.57v1.4h.57c9.12,0,18.76,9.64,18.76,18.76v.58h1.4v-.58c0-9.12,9.64-18.76,18.75-18.76h.58v-1.4Z"/><path class="a" d="M193.77,139.51h-.58c-9.11,0-18.75-9.64-18.75-18.75v-.58H173v.58c0,9.11-9.64,18.75-18.76,18.75h-.57v1.4h.57c9.12,0,18.76,9.64,18.76,18.76v.58h1.4v-.58c0-9.12,9.64-18.76,18.75-18.76h.58v-1.4Z"/><path class="a" d="M273.89,59.39h-.57c-9.12,0-18.76-9.64-18.76-18.76v-.57h-1.4v.57c0,9.12-9.64,18.76-18.76,18.76h-.57v1.4h.57c9.12,0,18.76,9.64,18.76,18.76v.57h1.4v-.57c0-9.12,9.64-18.76,18.76-18.76h.57v-1.4Z"/><path class="a" d="M273.89,99.45h-.57c-9.12,0-18.76-9.64-18.76-18.75v-.58h-1.4v.58c0,9.11-9.64,18.75-18.76,18.75h-.57v1.4h.57c9.12,0,18.76,9.64,18.76,18.76v.57h1.4v-.57c0-9.12,9.64-18.76,18.76-18.76h.57v-1.4Z"/><path class="a" d="M273.89,139.51h-.57c-9.12,0-18.76-9.64-18.76-18.75v-.58h-1.4v.58c0,9.11-9.64,18.75-18.76,18.75h-.57v1.4h.57c9.12,0,18.76,9.64,18.76,18.76v.58h1.4v-.58c0-9.12,9.64-18.76,18.76-18.76h.57v-1.4Z"/><path class="a" d="M314,59.39h-.58c-9.11,0-18.75-9.64-18.75-18.76v-.57h-1.4v.57c0,9.12-9.64,18.76-18.76,18.76h-.57v1.4h.57c9.12,0,18.76,9.64,18.76,18.76v.57h1.4v-.57c0-9.12,9.64-18.76,18.75-18.76H314v-1.4Z"/><path class="a" d="M314,19.33h-.58c-9.11,0-18.75-9.64-18.75-18.76V0h-1.4V.57c0,9.12-9.64,18.76-18.76,18.76h-.57v1.4h.57c9.12,0,18.76,9.64,18.76,18.76v.57h1.4v-.57c0-9.12,9.64-18.76,18.75-18.76H314v-1.4Z"/><path class="a" d="M314,99.45h-.58c-9.11,0-18.75-9.64-18.75-18.75v-.58h-1.4v.58c0,9.11-9.64,18.75-18.76,18.75h-.57v1.4h.57c9.12,0,18.76,9.64,18.76,18.76v.57h1.4v-.57c0-9.12,9.64-18.76,18.75-18.76H314v-1.4Z"/><path class="a" d="M314,179.58h-.58c-9.11,0-18.75-9.65-18.75-18.76v-.57h-1.4v.57c0,9.11-9.64,18.76-18.76,18.76h-.57V181h.57c9.12,0,18.76,9.64,18.76,18.76v.58h1.4v-.58c0-9.12,9.64-18.76,18.75-18.76H314v-1.39Z"/><path class="a" d="M153.71,179.58h-.58c-9.11,0-18.75-9.65-18.75-18.76v-.57H133v.57c0,9.11-9.64,18.76-18.76,18.76h-.57V181h.57c9.12,0,18.76,9.64,18.76,18.76v.58h1.4v-.58c0-9.12,9.64-18.76,18.75-18.76h.58v-1.39Z"/></svg>