<?xml version="1.0" encoding="UTF-8"?>
<!DOCTYPE svg PUBLIC "-//W3C//DTD SVG 1.1//EN" "http://www.w3.org/Graphics/SVG/1.1/DTD/svg11.dtd">
<svg xmlns="http://www.w3.org/2000/svg" version="1.1" width="2045px" height="2045px" style="shape-rendering:geometricPrecision; text-rendering:geometricPrecision; image-rendering:optimizeQuality; fill-rule:evenodd; clip-rule:evenodd" xmlns:xlink="http://www.w3.org/1999/xlink">
<g><path style="opacity:0.997" fill="#8f63e5" d="M 12.5,14.5 C 366.833,14.3333 721.167,14.5 1075.5,15C 1342.45,33.2474 1568.28,138.081 1753,329.5C 1943.69,536.799 2035.02,782.132 2027,1065.5C 2011.71,1338.51 1905.88,1569.01 1709.5,1757C 1494.11,1953.82 1239.77,2043.82 946.5,2027C 701.81,2006.53 491.477,1911.86 315.5,1743C 161.676,1590.56 65.1764,1407.06 26,1192.5C 17.5035,1143.87 13.1701,1094.87 13,1045.5C 12.5,701.833 12.3333,358.167 12.5,14.5 Z"/></g>
<g><path style="opacity:1" fill="#fefefe" d="M 1120.5,153.5 C 1124.57,155.054 1128.9,155.72 1133.5,155.5C 1133.83,155.5 1134.17,155.5 1134.5,155.5C 1139.25,157.031 1144.25,157.698 1149.5,157.5C 1157.97,159.244 1166.64,160.577 1175.5,161.5C 1177.51,162.924 1179.85,163.59 1182.5,163.5C 1188.42,164.75 1194.42,165.75 1200.5,166.5C 1202.51,167.924 1204.85,168.59 1207.5,168.5C 1211,169.917 1214.66,170.583 1218.5,170.5C 1220.51,171.924 1222.85,172.59 1225.5,172.5C 1233.63,175.282 1241.96,177.282 1250.5,178.5C 1252.1,180.074 1254.1,180.741 1256.5,180.5C 1257.57,181.434 1258.9,181.768 1260.5,181.5C 1263.5,183.277 1266.84,184.277 1270.5,184.5C 1273.5,186.277 1276.84,187.277 1280.5,187.5C 1289.94,191.204 1299.61,194.537 1309.5,197.5C 1311.42,198.363 1313.42,199.029 1315.5,199.5C 1317.94,200.871 1320.6,201.871 1323.5,202.5C 1329.73,205.118 1336.07,207.451 1342.5,209.5C 1344.51,211.065 1346.84,212.065 1349.5,212.5C 1374.28,223.217 1398.95,234.55 1423.5,246.5C 1423.97,247.906 1424.97,248.573 1426.5,248.5C 1448.16,260.328 1469.49,272.661 1490.5,285.5C 1490.97,286.906 1491.97,287.573 1493.5,287.5C 1642.7,385.009 1752.7,515.343 1823.5,678.5C 1823.17,681.491 1824.17,683.824 1826.5,685.5C 1826.17,688.491 1827.17,690.824 1829.5,692.5C 1829.56,693.609 1829.89,694.609 1830.5,695.5C 1830.17,698.491 1831.17,700.824 1833.5,702.5C 1838.37,715.776 1843.04,729.109 1847.5,742.5C 1848.27,746.149 1849.6,749.482 1851.5,752.5C 1851.88,754.921 1852.54,757.254 1853.5,759.5C 1853.72,763.162 1854.72,766.495 1856.5,769.5C 1861.47,785.969 1865.8,802.636 1869.5,819.5C 1869.41,822.152 1870.08,824.485 1871.5,826.5C 1873.05,833.117 1874.38,839.783 1875.5,846.5C 1875.41,849.152 1876.08,851.485 1877.5,853.5C 1878.69,860.137 1879.69,866.803 1880.5,873.5C 1880.57,876.428 1881.23,879.095 1882.5,881.5C 1883.38,887.474 1884.05,893.474 1884.5,899.5C 1885.19,906.347 1886.19,913.014 1887.5,919.5C 1888.23,924.13 1888.56,928.797 1888.5,933.5C 1888.87,939.009 1889.54,944.342 1890.5,949.5C 1891.19,956.813 1891.52,964.146 1891.5,971.5C 1892.42,1003.15 1892.75,1034.82 1892.5,1066.5C 1891.28,1074.31 1890.62,1082.31 1890.5,1090.5C 1890.5,1092.5 1890.5,1094.5 1890.5,1096.5C 1889.05,1102.27 1888.39,1108.27 1888.5,1114.5C 1887.66,1118.1 1887.32,1121.77 1887.5,1125.5C 1886.03,1129.92 1885.36,1134.59 1885.5,1139.5C 1884.03,1143.92 1883.36,1148.59 1883.5,1153.5C 1882.2,1158.98 1881.2,1164.65 1880.5,1170.5C 1879.7,1173.43 1879.37,1176.43 1879.5,1179.5C 1878.08,1181.51 1877.41,1183.85 1877.5,1186.5C 1877.5,1186.83 1877.5,1187.17 1877.5,1187.5C 1876.34,1190.27 1875.68,1193.27 1875.5,1196.5C 1874.2,1200.36 1873.53,1204.36 1873.5,1208.5C 1872.08,1210.51 1871.41,1212.85 1871.5,1215.5C 1871.5,1216.17 1871.5,1216.83 1871.5,1217.5C 1870.08,1219.51 1869.41,1221.85 1869.5,1224.5C 1867.75,1230.29 1866.42,1236.29 1865.5,1242.5C 1863.93,1244.1 1863.26,1246.1 1863.5,1248.5C 1862.57,1249.57 1862.23,1250.9 1862.5,1252.5C 1861.08,1254.51 1860.41,1256.85 1860.5,1259.5C 1859.08,1261.51 1858.41,1263.85 1858.5,1266.5C 1857.08,1268.51 1856.41,1270.85 1856.5,1273.5C 1854.72,1276.5 1853.72,1279.84 1853.5,1283.5C 1850.13,1291.94 1847.13,1300.61 1844.5,1309.5C 1843.64,1311.42 1842.97,1313.42 1842.5,1315.5C 1841.13,1317.94 1840.13,1320.6 1839.5,1323.5C 1839.5,1323.83 1839.5,1324.17 1839.5,1324.5C 1837.93,1326.51 1836.93,1328.84 1836.5,1331.5C 1833.58,1338.35 1830.92,1345.35 1828.5,1352.5C 1826.93,1354.51 1825.93,1356.84 1825.5,1359.5C 1814.4,1384.37 1802.73,1409.04 1790.5,1433.5C 1789.09,1433.97 1788.43,1434.97 1788.5,1436.5C 1702.16,1593.51 1579.83,1713.84 1421.5,1797.5C 1411.85,1801.66 1402.52,1806.33 1393.5,1811.5C 1369.66,1822.09 1345.66,1832.09 1321.5,1841.5C 1316.86,1842.6 1312.52,1844.27 1308.5,1846.5C 1303.33,1847.71 1298.33,1849.38 1293.5,1851.5C 1286.83,1852.72 1280.5,1854.72 1274.5,1857.5C 1271.85,1857.41 1269.51,1858.08 1267.5,1859.5C 1264.85,1859.41 1262.51,1860.08 1260.5,1861.5C 1257.85,1861.41 1255.51,1862.08 1253.5,1863.5C 1245.63,1865.05 1237.96,1867.05 1230.5,1869.5C 1226.01,1870.34 1221.68,1871.34 1217.5,1872.5C 1214.85,1872.41 1212.51,1873.08 1210.5,1874.5C 1209.83,1874.5 1209.17,1874.5 1208.5,1874.5C 1200.38,1876.18 1192.38,1877.84 1184.5,1879.5C 1184.17,1879.5 1183.83,1879.5 1183.5,1879.5C 1180.85,1879.41 1178.51,1880.08 1176.5,1881.5C 1172.27,1881.54 1168.27,1882.21 1164.5,1883.5C 1155.52,1883.64 1146.85,1884.97 1138.5,1887.5C 1135.1,1887.34 1131.76,1887.68 1128.5,1888.5C 1122.93,1888.38 1117.6,1889.04 1112.5,1890.5C 1111.83,1890.5 1111.17,1890.5 1110.5,1890.5C 1103.95,1890.45 1097.62,1891.12 1091.5,1892.5C 1090.5,1892.5 1089.5,1892.5 1088.5,1892.5C 1076.99,1892.85 1065.66,1893.52 1054.5,1894.5C 1014.44,1895.17 974.445,1894.17 934.5,1891.5C 928.377,1890 922.043,1889 915.5,1888.5C 914.167,1888.5 912.833,1888.5 911.5,1888.5C 900.032,1886.39 888.365,1884.72 876.5,1883.5C 856.311,1880.13 836.311,1876.13 816.5,1871.5C 812.022,1869.88 807.356,1868.54 802.5,1867.5C 796.772,1866.32 791.105,1864.98 785.5,1863.5C 781.915,1861.19 777.915,1859.86 773.5,1859.5C 771.5,1859.17 769.5,1858.83 767.5,1858.5C 764.916,1856.53 761.916,1855.53 758.5,1855.5C 756.254,1854.54 753.921,1853.88 751.5,1853.5C 747.478,1851.27 743.144,1849.6 738.5,1848.5C 711.238,1839.37 684.571,1829.03 658.5,1817.5C 658.027,1816.09 657.027,1815.43 655.5,1815.5C 515.899,1750.75 400.732,1656.08 310,1531.5C 270.098,1475.04 236.931,1414.71 210.5,1350.5C 210.065,1347.84 209.065,1345.51 207.5,1343.5C 203.785,1332.4 199.785,1321.4 195.5,1310.5C 192.871,1301.61 189.871,1292.94 186.5,1284.5C 185.943,1279.84 184.61,1275.5 182.5,1271.5C 182.59,1268.85 181.924,1266.51 180.5,1264.5C 180.59,1261.85 179.924,1259.51 178.5,1257.5C 178.741,1255.1 178.074,1253.1 176.5,1251.5C 175.593,1244.21 173.927,1237.21 171.5,1230.5C 171.59,1227.85 170.924,1225.51 169.5,1223.5C 169.583,1219.66 168.917,1216 167.5,1212.5C 166.66,1208.01 165.66,1203.68 164.5,1199.5C 164.5,1199.17 164.5,1198.83 164.5,1198.5C 164.118,1193.91 163.118,1189.57 161.5,1185.5C 160.926,1180.82 160.26,1176.15 159.5,1171.5C 159.324,1168.27 158.657,1165.27 157.5,1162.5C 155.402,1147.37 153.402,1132.37 151.5,1117.5C 151.55,1111.61 150.884,1105.94 149.5,1100.5C 149.817,1096.3 149.483,1092.3 148.5,1088.5C 148.591,1075.97 147.924,1063.64 146.5,1051.5C 146.5,1029.5 146.5,1007.5 146.5,985.5C 148.239,972.371 149.239,959.038 149.5,945.5C 150.458,940.342 151.125,935.009 151.5,929.5C 151.739,925.158 152.073,920.824 152.5,916.5C 153.482,912.684 154.149,908.684 154.5,904.5C 154.5,903.5 154.5,902.5 154.5,901.5C 155.979,895.709 156.979,889.709 157.5,883.5C 157.5,882.167 157.5,880.833 157.5,879.5C 159.04,877.162 159.706,874.495 159.5,871.5C 163.242,847.204 168.242,823.204 174.5,799.5C 176.074,797.898 176.741,795.898 176.5,793.5C 178.575,784.802 180.909,776.135 183.5,767.5C 185.074,765.898 185.741,763.898 185.5,761.5C 189.026,751.59 192.359,741.59 195.5,731.5C 197.065,729.491 198.065,727.157 198.5,724.5C 201.167,716.833 203.833,709.167 206.5,701.5C 208.834,699.824 209.834,697.491 209.5,694.5C 210.024,692.694 210.691,691.028 211.5,689.5C 213.834,687.824 214.834,685.491 214.5,682.5C 223.964,659.426 234.63,636.76 246.5,614.5C 247.906,614.027 248.573,613.027 248.5,611.5C 332.188,455.978 451.522,335.811 606.5,251C 630.567,238.442 654.9,226.942 679.5,216.5C 682.716,216.655 685.383,215.655 687.5,213.5C 691.165,213.498 694.165,212.165 696.5,209.5C 697.167,209.5 697.833,209.5 698.5,209.5C 700.967,209.245 702.967,208.245 704.5,206.5C 706.833,205.833 709.167,205.167 711.5,204.5C 713.819,204.008 715.819,203.008 717.5,201.5C 718.791,201.737 719.791,201.404 720.5,200.5C 723.152,200.59 725.485,199.924 727.5,198.5C 728.167,198.5 728.5,198.167 728.5,197.5C 730.898,197.741 732.898,197.074 734.5,195.5C 736.898,195.741 738.898,195.074 740.5,193.5C 778.603,180.248 817.603,170.248 857.5,163.5C 860.152,163.59 862.485,162.924 864.5,161.5C 869.028,161.23 873.361,160.563 877.5,159.5C 882.028,159.23 886.361,158.563 890.5,157.5C 906.46,155.172 922.46,153.172 938.5,151.5C 948.694,151.487 958.694,150.82 968.5,149.5C 1019.27,147.409 1069.93,148.742 1120.5,153.5 Z"/></g>
<g><path style="opacity:1" fill="#b99dee" d="M 968.5,149.5 C 958.694,150.82 948.694,151.487 938.5,151.5C 948.287,149.895 958.287,149.228 968.5,149.5 Z"/></g>
<g><path style="opacity:1" fill="#b89cee" d="M 1120.5,153.5 C 1125.1,153.28 1129.43,153.946 1133.5,155.5C 1128.9,155.72 1124.57,155.054 1120.5,153.5 Z"/></g>
<g><path style="opacity:1" fill="#ba9eef" d="M 1134.5,155.5 C 1139.73,155.444 1144.73,156.111 1149.5,157.5C 1144.25,157.698 1139.25,157.031 1134.5,155.5 Z"/></g>
<g><path style="opacity:1" fill="#ba9eef" d="M 890.5,157.5 C 886.361,158.563 882.028,159.23 877.5,159.5C 881.545,157.823 885.878,157.156 890.5,157.5 Z"/></g>
<g><path style="opacity:1" fill="#ccb8f3" d="M 864.5,161.5 C 862.485,162.924 860.152,163.59 857.5,163.5C 859.438,161.837 861.772,161.171 864.5,161.5 Z"/></g>
<g><path style="opacity:1" fill="#bfa5f0" d="M 1175.5,161.5 C 1178.15,161.41 1180.49,162.076 1182.5,163.5C 1179.85,163.59 1177.51,162.924 1175.5,161.5 Z"/></g>
<g><path style="opacity:1" fill="#bda2ef" d="M 1200.5,166.5 C 1203.15,166.41 1205.49,167.076 1207.5,168.5C 1204.85,168.59 1202.51,167.924 1200.5,166.5 Z"/></g>
<g><path style="opacity:1" fill="#b89bee" d="M 1218.5,170.5 C 1221.15,170.41 1223.49,171.076 1225.5,172.5C 1222.85,172.59 1220.51,171.924 1218.5,170.5 Z"/></g>
<g><path style="opacity:1" fill="#b89cee" d="M 1250.5,178.5 C 1252.9,178.259 1254.9,178.926 1256.5,180.5C 1254.1,180.741 1252.1,180.074 1250.5,178.5 Z"/></g>
<g><path style="opacity:1" fill="#ba9fef" d="M 1260.5,181.5 C 1264.16,181.723 1267.5,182.723 1270.5,184.5C 1266.84,184.277 1263.5,183.277 1260.5,181.5 Z"/></g>
<g><path style="opacity:1" fill="#bba0ef" d="M 1270.5,184.5 C 1274.16,184.723 1277.5,185.723 1280.5,187.5C 1276.84,187.277 1273.5,186.277 1270.5,184.5 Z"/></g>
<g><path style="opacity:1" fill="#b99cee" d="M 1280.5,187.5 C 1290.69,189.675 1300.36,193.008 1309.5,197.5C 1299.61,194.537 1289.94,191.204 1280.5,187.5 Z"/></g>
<g><path style="opacity:1" fill="#c8b2f2" d="M 740.5,193.5 C 738.898,195.074 736.898,195.741 734.5,195.5C 736.214,194.262 738.214,193.595 740.5,193.5 Z"/></g>
<g><path style="opacity:1" fill="#c3abf1" d="M 734.5,195.5 C 732.898,197.074 730.898,197.741 728.5,197.5C 730.214,196.262 732.214,195.595 734.5,195.5 Z"/></g>
<g><path style="opacity:1" fill="#d0bdf4" d="M 727.5,198.5 C 725.485,199.924 723.152,200.59 720.5,200.5C 722.515,199.076 724.848,198.41 727.5,198.5 Z"/></g>
<g><path style="opacity:1" fill="#b89cee" d="M 1315.5,199.5 C 1318.72,199.345 1321.38,200.345 1323.5,202.5C 1320.6,201.871 1317.94,200.871 1315.5,199.5 Z"/></g>
<g><path style="opacity:1" fill="#bea4ef" d="M 717.5,201.5 C 715.819,203.008 713.819,204.008 711.5,204.5C 712.911,202.461 714.911,201.461 717.5,201.5 Z"/></g>
<g><path style="opacity:1" fill="#d6c5f5" d="M 704.5,206.5 C 702.967,208.245 700.967,209.245 698.5,209.5C 700.033,207.755 702.033,206.755 704.5,206.5 Z"/></g>
<g><path style="opacity:1" fill="#b394ed" d="M 1342.5,209.5 C 1345.49,209.166 1347.82,210.166 1349.5,212.5C 1346.84,212.065 1344.51,211.065 1342.5,209.5 Z"/></g>
<g><path style="opacity:1" fill="#d9c9f6" d="M 696.5,209.5 C 694.165,212.165 691.165,213.498 687.5,213.5C 690.088,211.408 693.088,210.075 696.5,209.5 Z"/></g>
<g><path style="opacity:1" fill="#d5c3f5" d="M 687.5,213.5 C 685.383,215.655 682.716,216.655 679.5,216.5C 681.936,215.129 684.603,214.129 687.5,213.5 Z"/></g>
<g><path style="opacity:1" fill="#c4aef1" d="M 1423.5,246.5 C 1425.03,246.427 1426.03,247.094 1426.5,248.5C 1424.97,248.573 1423.97,247.906 1423.5,246.5 Z"/></g>
<g><path style="opacity:1" fill="#c2aaf1" d="M 1490.5,285.5 C 1492.03,285.427 1493.03,286.094 1493.5,287.5C 1491.97,287.573 1490.97,286.906 1490.5,285.5 Z"/></g>
<g><path style="opacity:1" fill="#2a2f3e" d="M 704.5,579.5 C 704.41,582.152 705.076,584.485 706.5,586.5C 708.177,598.754 708.844,611.088 708.5,623.5C 706.924,634.443 705.924,645.443 705.5,656.5C 703.66,673.494 708.994,687.66 721.5,699C 723.407,700.122 725.407,700.955 727.5,701.5C 722.695,702.487 717.695,702.821 712.5,702.5C 710.485,701.076 708.152,700.41 705.5,700.5C 691.964,695.299 682.297,685.966 676.5,672.5C 660.424,690.035 640.758,701.035 617.5,705.5C 603.121,706.951 588.788,706.618 574.5,704.5C 570.183,702.06 565.517,700.393 560.5,699.5C 524.923,684.066 504.09,657.066 498,618.5C 496.452,569.427 517.952,534.593 562.5,514C 604.639,499.04 642.639,506.04 676.5,535C 689.325,547.654 698.658,562.487 704.5,579.5 Z"/></g>
<g><path style="opacity:1" fill="#f8f9f9" d="M 593.5,531.5 C 602.143,530.725 610.476,531.892 618.5,535C 577.064,541.602 554.397,565.769 550.5,607.5C 551.645,633.953 563.312,654.453 585.5,669C 593.746,673.793 602.413,677.46 611.5,680C 598.905,684.277 586.905,682.944 575.5,676C 540.853,652.838 529.019,621.005 540,580.5C 550.416,555.911 568.25,539.578 593.5,531.5 Z"/></g>
<g><path style="opacity:1" fill="#303543" d="M 1521.5,544.5 C 1534.93,542.295 1544.43,547.295 1550,559.5C 1551.61,580.797 1541.78,589.963 1520.5,587C 1508.93,581.018 1504.43,571.518 1507,558.5C 1510.41,552.257 1515.24,547.59 1521.5,544.5 Z"/></g>
<g><path style="opacity:1" fill="#2c3140" d="M 1348.5,592.5 C 1350.37,604.437 1349.37,616.104 1345.5,627.5C 1335.73,647.711 1319.73,659.045 1297.5,661.5C 1289.15,661.518 1280.82,661.185 1272.5,660.5C 1268.77,658.589 1264.77,657.256 1260.5,656.5C 1241.32,648.126 1230.15,633.46 1227,612.5C 1224.76,575.406 1241.93,553.572 1278.5,547C 1301.08,544.677 1320.58,551.177 1337,566.5C 1343.07,574.228 1346.9,582.895 1348.5,592.5 Z"/></g>
<g><path style="opacity:1" fill="#2d3140" d="M 1387.5,570.5 C 1385.83,571.343 1384.66,572.676 1384,574.5C 1383.2,577.367 1383.37,580.034 1384.5,582.5C 1387.16,587.015 1391.16,589.849 1396.5,591C 1412.14,593.179 1427.8,595.179 1443.5,597C 1453.72,598.362 1462.56,602.529 1470,609.5C 1479.79,628.959 1475.29,644.292 1456.5,655.5C 1450.33,657.958 1444,659.625 1437.5,660.5C 1424.15,660.666 1410.82,660.333 1397.5,659.5C 1395.49,658.076 1393.15,657.41 1390.5,657.5C 1380.11,653.883 1371.28,647.883 1364,639.5C 1362.25,637.788 1361.58,635.788 1362,633.5C 1365.73,630.101 1369.73,627.101 1374,624.5C 1378.1,628.6 1382.27,632.767 1386.5,637C 1390.13,639.65 1394.13,641.483 1398.5,642.5C 1400.51,643.924 1402.85,644.59 1405.5,644.5C 1418.88,646.376 1432.21,645.543 1445.5,642C 1455,638.164 1458.5,631.331 1456,621.5C 1451.33,617.25 1445.83,614.75 1439.5,614C 1425.86,612.136 1412.19,610.469 1398.5,609C 1387.87,607.907 1378.7,603.741 1371,596.5C 1365.74,589.443 1364.24,581.777 1366.5,573.5C 1368.07,571.898 1368.74,569.898 1368.5,567.5C 1372.05,560.122 1377.72,554.956 1385.5,552C 1411.94,542.846 1437.27,545.179 1461.5,559C 1465.55,562.712 1469.21,566.712 1472.5,571C 1469.06,574.559 1465.39,577.893 1461.5,581C 1460.83,581.667 1460.17,581.667 1459.5,581C 1450.98,569.835 1439.64,563.835 1425.5,563C 1414.59,561.693 1403.92,562.693 1393.5,566C 1390.89,566.792 1388.89,568.292 1387.5,570.5 Z"/></g>
<g><path style="opacity:1" fill="#bec0c4" d="M 910.5,549.5 C 902.981,549.175 895.648,549.508 888.5,550.5C 887.957,550.44 887.624,550.107 887.5,549.5C 895.323,548.18 902.99,548.18 910.5,549.5 Z"/></g>
<g><path style="opacity:1" fill="#2e3342" d="M 874.5,656.5 C 868.588,658.456 862.255,659.123 855.5,658.5C 851.478,649.792 847.478,641.125 843.5,632.5C 821.49,632.167 799.49,632.5 777.5,633.5C 772.077,641.678 767.744,650.345 764.5,659.5C 758.167,659.5 751.833,659.5 745.5,659.5C 746.509,656.951 747.342,654.285 748,651.5C 765.535,618.099 782.869,584.433 800,550.5C 806.777,549.189 813.61,549.189 820.5,550.5C 838.48,585.793 856.48,621.126 874.5,656.5 Z"/></g>
<g><path style="opacity:1" fill="#2b303f" d="M 910.5,549.5 C 919.645,562.433 928.811,575.433 938,588.5C 947.044,575.579 956.211,562.745 965.5,550C 972.833,549.333 980.167,549.333 987.5,550C 975.028,567.972 962.361,585.806 949.5,603.5C 962.581,621.241 975.247,639.241 987.5,657.5C 980.352,658.492 973.019,658.825 965.5,658.5C 956.581,644.908 947.248,631.575 937.5,618.5C 928.157,631.862 918.824,645.196 909.5,658.5C 902.492,658.666 895.492,658.5 888.5,658C 889.252,657.329 889.586,656.496 889.5,655.5C 901.783,638.203 914.117,620.87 926.5,603.5C 913.808,585.815 901.142,568.148 888.5,550.5C 895.648,549.508 902.981,549.175 910.5,549.5 Z"/></g>
<g><path style="opacity:1" fill="#292e3d" d="M 1101.5,549.5 C 1101.5,554.833 1101.5,560.167 1101.5,565.5C 1074.83,565.5 1048.17,565.5 1021.5,565.5C 1020.51,574.986 1020.17,584.652 1020.5,594.5C 1043.17,594.5 1065.83,594.5 1088.5,594.5C 1088.5,599.5 1088.5,604.5 1088.5,609.5C 1065.66,609.169 1042.99,609.503 1020.5,610.5C 1020.5,621.5 1020.5,632.5 1020.5,643.5C 1048.17,643.5 1075.83,643.5 1103.5,643.5C 1103.5,648.5 1103.5,653.5 1103.5,658.5C 1070.17,658.5 1036.83,658.5 1003.5,658.5C 1003.5,622.167 1003.5,585.833 1003.5,549.5C 1036.17,549.5 1068.83,549.5 1101.5,549.5 Z"/></g>
<g><path style="opacity:1" fill="#2a2f3e" d="M 1121.5,549.5 C 1127.17,549.5 1132.83,549.5 1138.5,549.5C 1138.5,580.833 1138.5,612.167 1138.5,643.5C 1165.83,643.5 1193.17,643.5 1220.5,643.5C 1220.5,648.5 1220.5,653.5 1220.5,658.5C 1187.5,658.5 1154.5,658.5 1121.5,658.5C 1121.5,622.167 1121.5,585.833 1121.5,549.5 Z"/></g>
<g><path style="opacity:1" fill="#eff0f1" d="M 1524.5,548.5 C 1538.16,548.331 1545,554.998 1545,568.5C 1541.54,580.646 1533.71,585.146 1521.5,582C 1511.31,575.109 1509.15,566.276 1515,555.5C 1517.79,552.535 1520.96,550.202 1524.5,548.5 Z"/></g>
<g><path style="opacity:1" fill="#373b49" d="M 1523.5,554.5 C 1529.08,553.525 1533.92,554.858 1538,558.5C 1538.76,561.987 1537.59,564.654 1534.5,566.5C 1537.07,569.653 1538.41,573.32 1538.5,577.5C 1536.8,577.66 1535.13,577.494 1533.5,577C 1532.5,574.667 1531.5,572.333 1530.5,570C 1528.87,569.506 1527.2,569.34 1525.5,569.5C 1525.5,572.167 1525.5,574.833 1525.5,577.5C 1523.83,577.5 1522.17,577.5 1520.5,577.5C 1520.5,570.167 1520.5,562.833 1520.5,555.5C 1521.79,555.737 1522.79,555.404 1523.5,554.5 Z"/></g>
<g><path style="opacity:1" fill="#f0f0f1" d="M 1525.5,558.5 C 1530.48,557.65 1532.48,559.483 1531.5,564C 1529.53,564.495 1527.53,564.662 1525.5,564.5C 1525.5,562.5 1525.5,560.5 1525.5,558.5 Z"/></g>
<g><path style="opacity:1" fill="#fdfdfd" d="M 1332.5,609.5 C 1331.2,613.733 1329.87,618.067 1328.5,622.5C 1322.65,635.515 1312.65,643.015 1298.5,645C 1280.61,649.145 1265.45,644.645 1253,631.5C 1249.4,626.301 1246.9,620.635 1245.5,614.5C 1244.17,606.833 1244.17,599.167 1245.5,591.5C 1247.07,589.898 1247.74,587.898 1247.5,585.5C 1255.63,570.123 1268.63,562.456 1286.5,562.5C 1317.51,563.175 1332.84,578.841 1332.5,609.5 Z"/></g>
<g><path style="opacity:1" fill="#fcfcfd" d="M 619.5,563.5 C 638.033,561.181 651.533,568.181 660,584.5C 665.702,618.056 655.535,645.889 629.5,668C 627.419,668.869 625.253,669.369 623,669.5C 589.806,658.447 576.806,635.781 584,601.5C 589.861,583.142 601.695,570.475 619.5,563.5 Z"/></g>
<g><path style="opacity:1" fill="#c3c5c9" d="M 1101.5,549.5 C 1102.49,554.975 1102.82,560.642 1102.5,566.5C 1075.5,566.5 1048.5,566.5 1021.5,566.5C 1021.5,566.167 1021.5,565.833 1021.5,565.5C 1048.17,565.5 1074.83,565.5 1101.5,565.5C 1101.5,560.167 1101.5,554.833 1101.5,549.5 Z"/></g>
<g><path style="opacity:1" fill="#f8f9f9" d="M 833.5,613.5 C 826.197,614.831 818.53,615.498 810.5,615.5C 802.47,615.498 794.803,614.831 787.5,613.5C 794.477,598.212 801.977,583.212 810,568.5C 818.356,583.212 826.189,598.212 833.5,613.5 Z"/></g>
<g><path style="opacity:1" fill="#70747e" d="M 1368.5,567.5 C 1368.74,569.898 1368.07,571.898 1366.5,573.5C 1366.26,571.102 1366.93,569.102 1368.5,567.5 Z"/></g>
<g><path style="opacity:1" fill="#afb1b7" d="M 1387.5,570.5 C 1385.29,574.139 1384.29,578.139 1384.5,582.5C 1383.37,580.034 1383.2,577.367 1384,574.5C 1384.66,572.676 1385.83,571.343 1387.5,570.5 Z"/></g>
<g><path style="opacity:1" fill="#868991" d="M 704.5,579.5 C 705.924,581.515 706.59,583.848 706.5,586.5C 705.076,584.485 704.41,582.152 704.5,579.5 Z"/></g>
<g><path style="opacity:1" fill="#a7a9af" d="M 1247.5,585.5 C 1247.74,587.898 1247.07,589.898 1245.5,591.5C 1245.26,589.102 1245.93,587.102 1247.5,585.5 Z"/></g>
<g><path style="opacity:1" fill="#a5a7ad" d="M 1021.5,565.5 C 1021.5,565.833 1021.5,566.167 1021.5,566.5C 1021.5,575.5 1021.5,584.5 1021.5,593.5C 1044.01,593.169 1066.34,593.503 1088.5,594.5C 1065.83,594.5 1043.17,594.5 1020.5,594.5C 1020.17,584.652 1020.51,574.986 1021.5,565.5 Z"/></g>
<g><path style="opacity:1" fill="#b0b2b7" d="M 1348.5,592.5 C 1349.22,592.918 1349.72,593.584 1350,594.5C 1351.26,605.403 1350.26,616.07 1347,626.5C 1346.62,627.056 1346.12,627.389 1345.5,627.5C 1349.37,616.104 1350.37,604.437 1348.5,592.5 Z"/></g>
<g><path style="opacity:1" fill="#898c94" d="M 1245.5,591.5 C 1244.17,599.167 1244.17,606.833 1245.5,614.5C 1244.78,614.082 1244.28,613.416 1244,612.5C 1243.33,606.167 1243.33,599.833 1244,593.5C 1244.28,592.584 1244.78,591.918 1245.5,591.5 Z"/></g>
<g><path style="opacity:1" fill="#686c76" d="M 706.5,586.5 C 707.925,589.903 708.758,593.57 709,597.5C 709.824,606.343 709.657,615.01 708.5,623.5C 708.844,611.088 708.177,598.754 706.5,586.5 Z"/></g>
<g><path style="opacity:1" fill="#5d606c" d="M 1088.5,594.5 C 1089.49,599.64 1089.82,604.974 1089.5,610.5C 1066.83,610.5 1044.17,610.5 1021.5,610.5C 1021.17,610.5 1020.83,610.5 1020.5,610.5C 1042.99,609.503 1065.66,609.169 1088.5,609.5C 1088.5,604.5 1088.5,599.5 1088.5,594.5 Z"/></g>
<g><path style="opacity:1" fill="#7b7e87" d="M 1332.5,609.5 C 1332.74,614.446 1331.4,618.779 1328.5,622.5C 1329.87,618.067 1331.2,613.733 1332.5,609.5 Z"/></g>
<g><path style="opacity:1" fill="#c4aef1" d="M 248.5,611.5 C 248.573,613.027 247.906,614.027 246.5,614.5C 246.427,612.973 247.094,611.973 248.5,611.5 Z"/></g>
<g><path style="opacity:1" fill="#80828c" d="M 787.5,613.5 C 794.803,614.831 802.47,615.498 810.5,615.5C 818.53,615.498 826.197,614.831 833.5,613.5C 834.404,614.209 834.737,615.209 834.5,616.5C 818.5,616.5 802.5,616.5 786.5,616.5C 786.263,615.209 786.596,614.209 787.5,613.5 Z"/></g>
<g><path style="opacity:1" fill="#bcbec2" d="M 1020.5,610.5 C 1020.83,610.5 1021.17,610.5 1021.5,610.5C 1021.5,621.167 1021.5,631.833 1021.5,642.5C 1049.01,642.169 1076.34,642.502 1103.5,643.5C 1075.83,643.5 1048.17,643.5 1020.5,643.5C 1020.5,632.5 1020.5,621.5 1020.5,610.5 Z"/></g>
<g><path style="opacity:1" fill="#cdcfd2" d="M 1138.5,549.5 C 1139.5,580.329 1139.83,611.329 1139.5,642.5C 1167.01,642.169 1194.34,642.502 1221.5,643.5C 1221.17,643.5 1220.83,643.5 1220.5,643.5C 1193.17,643.5 1165.83,643.5 1138.5,643.5C 1138.5,612.167 1138.5,580.833 1138.5,549.5 Z"/></g>
<g><path style="opacity:1" fill="#abadb2" d="M 1398.5,642.5 C 1401.15,642.41 1403.49,643.076 1405.5,644.5C 1402.85,644.59 1400.51,643.924 1398.5,642.5 Z"/></g>
<g><path style="opacity:1" fill="#626671" d="M 1260.5,656.5 C 1264.77,657.256 1268.77,658.589 1272.5,660.5C 1268.08,660.139 1264.08,658.806 1260.5,656.5 Z"/></g>
<g><path style="opacity:1" fill="#747781" d="M 1390.5,657.5 C 1393.15,657.41 1395.49,658.076 1397.5,659.5C 1394.85,659.59 1392.51,658.924 1390.5,657.5 Z"/></g>
<g><path style="opacity:1" fill="#5e626d" d="M 874.5,656.5 C 875.404,657.209 875.737,658.209 875.5,659.5C 868.646,659.824 861.979,659.491 855.5,658.5C 862.255,659.123 868.588,658.456 874.5,656.5 Z"/></g>
<g><path style="opacity:1" fill="#5b5f6a" d="M 889.5,655.5 C 889.586,656.496 889.252,657.329 888.5,658C 895.492,658.5 902.492,658.666 909.5,658.5C 902.352,659.492 895.019,659.825 887.5,659.5C 887.229,657.62 887.896,656.287 889.5,655.5 Z"/></g>
<g><path style="opacity:1" fill="#5c606b" d="M 987.5,657.5 C 988.043,657.56 988.376,657.893 988.5,658.5C 980.677,659.82 973.01,659.82 965.5,658.5C 973.019,658.825 980.352,658.492 987.5,657.5 Z"/></g>
<g><path style="opacity:1" fill="#646772" d="M 1103.5,643.5 C 1104.49,648.64 1104.82,653.974 1104.5,659.5C 1070.66,659.832 1037,659.498 1003.5,658.5C 1036.83,658.5 1070.17,658.5 1103.5,658.5C 1103.5,653.5 1103.5,648.5 1103.5,643.5 Z"/></g>
<g><path style="opacity:1" fill="#666974" d="M 1121.5,549.5 C 1121.5,585.833 1121.5,622.167 1121.5,658.5C 1154.5,658.5 1187.5,658.5 1220.5,658.5C 1220.5,653.5 1220.5,648.5 1220.5,643.5C 1220.83,643.5 1221.17,643.5 1221.5,643.5C 1221.5,648.833 1221.5,654.167 1221.5,659.5C 1187.83,659.5 1154.17,659.5 1120.5,659.5C 1120.17,622.663 1120.5,585.996 1121.5,549.5 Z"/></g>
<g><path style="opacity:1" fill="#646873" d="M 1397.5,659.5 C 1410.82,660.333 1424.15,660.666 1437.5,660.5C 1436.39,661.29 1435.06,661.79 1433.5,662C 1424.83,662.667 1416.17,662.667 1407.5,662C 1403.91,661.689 1400.58,660.856 1397.5,659.5 Z"/></g>
<g><path style="opacity:1" fill="#7b7d87" d="M 1272.5,660.5 C 1280.82,661.185 1289.15,661.518 1297.5,661.5C 1294.52,662.165 1291.35,662.498 1288,662.5C 1282.59,662.621 1277.42,661.954 1272.5,660.5 Z"/></g>
<g><path style="opacity:1" fill="#d6c5f5" d="M 1823.5,678.5 C 1825.07,680.509 1826.07,682.843 1826.5,685.5C 1824.17,683.824 1823.17,681.491 1823.5,678.5 Z"/></g>
<g><path style="opacity:1" fill="#d8c7f6" d="M 214.5,682.5 C 214.834,685.491 213.834,687.824 211.5,689.5C 211.935,686.843 212.935,684.509 214.5,682.5 Z"/></g>
<g><path style="opacity:1" fill="#d3c0f4" d="M 1826.5,685.5 C 1828.07,687.509 1829.07,689.843 1829.5,692.5C 1827.17,690.824 1826.17,688.491 1826.5,685.5 Z"/></g>
<g><path style="opacity:1" fill="#d3c1f5" d="M 209.5,694.5 C 209.834,697.491 208.834,699.824 206.5,701.5C 206.935,698.843 207.935,696.509 209.5,694.5 Z"/></g>
<g><path style="opacity:1" fill="#d6c5f5" d="M 1830.5,695.5 C 1832.07,697.509 1833.07,699.843 1833.5,702.5C 1831.17,700.824 1830.17,698.491 1830.5,695.5 Z"/></g>
<g><path style="opacity:1" fill="#7b7e87" d="M 705.5,700.5 C 708.152,700.41 710.485,701.076 712.5,702.5C 709.848,702.59 707.515,701.924 705.5,700.5 Z"/></g>
<g><path style="opacity:1" fill="#757882" d="M 560.5,699.5 C 565.517,700.393 570.183,702.06 574.5,704.5C 569.362,703.921 564.695,702.254 560.5,699.5 Z"/></g>
<g><path style="opacity:1" fill="#616570" d="M 727.5,701.5 C 729.179,701.892 730.846,702.392 732.5,703C 725.654,703.821 718.987,703.654 712.5,702.5C 717.695,702.821 722.695,702.487 727.5,701.5 Z"/></g>
<g><path style="opacity:1" fill="#767a83" d="M 574.5,704.5 C 588.788,706.618 603.121,706.951 617.5,705.5C 616.737,706.268 615.737,706.768 614.5,707C 604.833,707.667 595.167,707.667 585.5,707C 581.57,706.758 577.903,705.925 574.5,704.5 Z"/></g>
<g><path style="opacity:1" fill="#c1a8f0" d="M 198.5,724.5 C 198.065,727.157 197.065,729.491 195.5,731.5C 195.552,728.654 196.552,726.32 198.5,724.5 Z"/></g>
<g><path style="opacity:1" fill="#bba0ef" d="M 1847.5,742.5 C 1849.79,745.335 1851.12,748.668 1851.5,752.5C 1849.6,749.482 1848.27,746.149 1847.5,742.5 Z"/></g>
<g><path style="opacity:1" fill="#c4adf1" d="M 1853.5,759.5 C 1855.28,762.505 1856.28,765.838 1856.5,769.5C 1854.72,766.495 1853.72,763.162 1853.5,759.5 Z"/></g>
<g><path style="opacity:1" fill="#c3acf1" d="M 185.5,761.5 C 185.741,763.898 185.074,765.898 183.5,767.5C 183.595,765.214 184.262,763.214 185.5,761.5 Z"/></g>
<g><path style="opacity:1" fill="#c4acf1" d="M 176.5,793.5 C 176.741,795.898 176.074,797.898 174.5,799.5C 174.259,797.102 174.926,795.102 176.5,793.5 Z"/></g>
<g><path style="opacity:1" fill="#d1bff4" d="M 1869.5,819.5 C 1870.92,821.515 1871.59,823.848 1871.5,826.5C 1870.08,824.485 1869.41,822.152 1869.5,819.5 Z"/></g>
<g><path style="opacity:1" fill="#c3abf1" d="M 1875.5,846.5 C 1876.92,848.515 1877.59,850.848 1877.5,853.5C 1876.08,851.485 1875.41,849.152 1875.5,846.5 Z"/></g>
<g><path style="opacity:1" fill="#c4adf1" d="M 159.5,871.5 C 159.706,874.495 159.04,877.162 157.5,879.5C 157.294,876.505 157.96,873.838 159.5,871.5 Z"/></g>
<g><path style="opacity:1" fill="#c1a8f0" d="M 1880.5,873.5 C 1882.04,875.838 1882.71,878.505 1882.5,881.5C 1881.23,879.095 1880.57,876.428 1880.5,873.5 Z"/></g>
<g><path style="opacity:1" fill="#9469e6" d="M 1424.5,886.5 C 1451.99,884.488 1465.15,897.155 1464,924.5C 1456.94,944.951 1442.77,952.784 1421.5,948C 1405.48,941.136 1398.31,928.969 1400,911.5C 1403.68,898.651 1411.85,890.318 1424.5,886.5 Z"/></g>
<g><path style="opacity:1" fill="#c0a6f0" d="M 157.5,883.5 C 156.979,889.709 155.979,895.709 154.5,901.5C 154.523,896.126 155.023,890.793 156,885.5C 156.278,884.584 156.778,883.918 157.5,883.5 Z"/></g>
<g><path style="opacity:1" fill="#d1bff4" d="M 1436.5,893.5 C 1432.13,893.467 1427.8,893.8 1423.5,894.5C 1425.85,893.048 1428.51,892.382 1431.5,892.5C 1433.37,892.507 1435.04,892.84 1436.5,893.5 Z"/></g>
<g><path style="opacity:1" fill="#a481e9" d="M 642.5,892.5 C 657.833,892.5 673.167,892.5 688.5,892.5C 688.5,988.167 688.5,1083.83 688.5,1179.5C 673.167,1179.5 657.833,1179.5 642.5,1179.5C 642.5,1083.83 642.5,988.167 642.5,892.5 Z"/></g>
<g><path style="opacity:1" fill="#8e63e5" d="M 643.5,893.5 C 658.167,893.5 672.833,893.5 687.5,893.5C 687.5,988.5 687.5,1083.5 687.5,1178.5C 672.833,1178.5 658.167,1178.5 643.5,1178.5C 643.5,1083.5 643.5,988.5 643.5,893.5 Z"/></g>
<g><path style="opacity:1" fill="#8f63e5" d="M 897.5,935.5 C 896.501,1016.33 896.167,1097.33 896.5,1178.5C 881.5,1178.5 866.5,1178.5 851.5,1178.5C 851.833,1097.33 851.499,1016.33 850.5,935.5C 807.003,934.501 763.337,934.168 719.5,934.5C 719.5,920.833 719.5,907.167 719.5,893.5C 822.5,893.5 925.5,893.5 1028.5,893.5C 1028.5,907.167 1028.5,920.833 1028.5,934.5C 984.663,934.168 940.997,934.501 897.5,935.5 Z"/></g>
<g><path style="opacity:1" fill="#b597ed" d="M 1028.5,935.5 C 984.833,935.5 941.167,935.5 897.5,935.5C 940.997,934.501 984.663,934.168 1028.5,934.5C 1028.5,920.833 1028.5,907.167 1028.5,893.5C 925.5,893.5 822.5,893.5 719.5,893.5C 719.5,907.167 719.5,920.833 719.5,934.5C 763.337,934.168 807.003,934.501 850.5,935.5C 806.5,935.5 762.5,935.5 718.5,935.5C 718.5,921.167 718.5,906.833 718.5,892.5C 822.167,892.5 925.833,892.5 1029.5,892.5C 1029.83,907.01 1029.5,921.343 1028.5,935.5 Z"/></g>
<g><path style="opacity:1" fill="#8e63e5" d="M 1059.5,893.5 C 1074.5,893.5 1089.5,893.5 1104.5,893.5C 1104.5,988.5 1104.5,1083.5 1104.5,1178.5C 1089.5,1178.5 1074.5,1178.5 1059.5,1178.5C 1059.5,1083.5 1059.5,988.5 1059.5,893.5 Z"/></g>
<g><path style="opacity:1" fill="#a27de9" d="M 1059.5,893.5 C 1074.66,892.504 1089.99,892.17 1105.5,892.5C 1105.5,988.167 1105.5,1083.83 1105.5,1179.5C 1089.99,1179.83 1074.66,1179.5 1059.5,1178.5C 1074.5,1178.5 1089.5,1178.5 1104.5,1178.5C 1104.5,1083.5 1104.5,988.5 1104.5,893.5C 1089.5,893.5 1074.5,893.5 1059.5,893.5 Z"/></g>
<g><path style="opacity:1" fill="#8f63e5" d="M 1148.5,893.5 C 1163.5,893.5 1178.5,893.5 1193.5,893.5C 1193.17,974.668 1193.5,1055.67 1194.5,1136.5C 1266.17,1136.5 1337.83,1136.5 1409.5,1136.5C 1409.5,1150.5 1409.5,1164.5 1409.5,1178.5C 1322.5,1178.5 1235.5,1178.5 1148.5,1178.5C 1148.5,1083.5 1148.5,988.5 1148.5,893.5 Z"/></g>
<g><path style="opacity:1" fill="#b192ec" d="M 1148.5,893.5 C 1148.5,893.167 1148.5,892.833 1148.5,892.5C 1163.83,892.5 1179.17,892.5 1194.5,892.5C 1194.5,973.833 1194.5,1055.17 1194.5,1136.5C 1193.5,1055.67 1193.17,974.668 1193.5,893.5C 1178.5,893.5 1163.5,893.5 1148.5,893.5 Z"/></g>
<g><path style="opacity:1" fill="#faf8fe" d="M 1436.5,893.5 C 1449.26,896.338 1455.93,904.338 1456.5,917.5C 1453.3,938.938 1441.3,946.438 1420.5,940C 1407.82,930.238 1404.99,918.071 1412,903.5C 1415.16,899.497 1418.99,896.497 1423.5,894.5C 1427.8,893.8 1432.13,893.467 1436.5,893.5 Z"/></g>
<g><path style="opacity:1" fill="#966de6" d="M 1421.5,901.5 C 1427.51,901.334 1433.51,901.501 1439.5,902C 1448.38,907.062 1448.71,912.562 1440.5,918.5C 1442.2,919.364 1443.36,920.697 1444,922.5C 1445.01,926.22 1446.18,929.886 1447.5,933.5C 1444.89,934.652 1442.23,934.818 1439.5,934C 1438.41,930.493 1437.25,926.993 1436,923.5C 1433.44,921.821 1430.6,921.154 1427.5,921.5C 1427.5,925.833 1427.5,930.167 1427.5,934.5C 1424.83,934.5 1422.17,934.5 1419.5,934.5C 1418.89,923.245 1419.56,912.245 1421.5,901.5 Z"/></g>
<g><path style="opacity:1" fill="#bb9fef" d="M 1884.5,899.5 C 1885.12,899.611 1885.62,899.944 1886,900.5C 1886.9,906.806 1887.4,913.139 1887.5,919.5C 1886.19,913.014 1885.19,906.347 1884.5,899.5 Z"/></g>
<g><path style="opacity:1" fill="#f9f6fd" d="M 1427.5,907.5 C 1430.19,907.336 1432.85,907.503 1435.5,908C 1438.4,911.156 1438.07,913.822 1434.5,916C 1432.19,916.497 1429.86,916.663 1427.5,916.5C 1427.5,913.5 1427.5,910.5 1427.5,907.5 Z"/></g>
<g><path style="opacity:1" fill="#bba0ef" d="M 154.5,904.5 C 154.149,908.684 153.482,912.684 152.5,916.5C 152.335,913.15 152.502,909.817 153,906.5C 153.278,905.584 153.778,904.918 154.5,904.5 Z"/></g>
<g><path style="opacity:1" fill="#bba0ef" d="M 151.5,929.5 C 151.125,935.009 150.458,940.342 149.5,945.5C 149.334,941.154 149.501,936.821 150,932.5C 150.232,931.263 150.732,930.263 151.5,929.5 Z"/></g>
<g><path style="opacity:1" fill="#b496ed" d="M 850.5,935.5 C 851.499,1016.33 851.833,1097.33 851.5,1178.5C 866.5,1178.5 881.5,1178.5 896.5,1178.5C 896.167,1097.33 896.501,1016.33 897.5,935.5C 897.5,1016.83 897.5,1098.17 897.5,1179.5C 881.833,1179.5 866.167,1179.5 850.5,1179.5C 850.5,1098.17 850.5,1016.83 850.5,935.5 Z"/></g>
<g><path style="opacity:1" fill="#f0eafb" d="M 897.5,935.5 C 941.167,935.5 984.833,935.5 1028.5,935.5C 985.337,936.499 942.003,936.832 898.5,936.5C 898.833,1017.67 898.499,1098.67 897.5,1179.5C 897.5,1098.17 897.5,1016.83 897.5,935.5 Z"/></g>
<g><path style="opacity:1" fill="#bb9fef" d="M 1888.5,933.5 C 1889.22,933.918 1889.72,934.584 1890,935.5C 1890.5,940.155 1890.67,944.821 1890.5,949.5C 1889.54,944.342 1888.87,939.009 1888.5,933.5 Z"/></g>
<g><path style="opacity:1" fill="#b699ee" d="M 149.5,945.5 C 149.239,959.038 148.239,972.371 146.5,985.5C 146.536,971.945 147.536,958.612 149.5,945.5 Z"/></g>
<g><path style="opacity:1" fill="#bca1ef" d="M 1891.5,971.5 C 1892.3,972.952 1892.8,974.618 1893,976.5C 1893.83,1006.67 1893.66,1036.67 1892.5,1066.5C 1892.75,1034.82 1892.42,1003.15 1891.5,971.5 Z"/></g>
<g><path style="opacity:1" fill="#af90ec" d="M 146.5,1051.5 C 147.924,1063.64 148.591,1075.97 148.5,1088.5C 146.962,1076.37 146.296,1064.03 146.5,1051.5 Z"/></g>
<g><path style="opacity:1" fill="#b192ed" d="M 1892.5,1066.5 C 1892.88,1074.74 1892.22,1082.74 1890.5,1090.5C 1890.62,1082.31 1891.28,1074.31 1892.5,1066.5 Z"/></g>
<g><path style="opacity:1" fill="#b294ed" d="M 1890.5,1096.5 C 1890.72,1102.74 1890.06,1108.74 1888.5,1114.5C 1888.39,1108.27 1889.05,1102.27 1890.5,1096.5 Z"/></g>
<g><path style="opacity:1" fill="#b294ed" d="M 149.5,1100.5 C 150.884,1105.94 151.55,1111.61 151.5,1117.5C 149.988,1112.07 149.321,1106.4 149.5,1100.5 Z"/></g>
<g><path style="opacity:1" fill="#b294ed" d="M 1887.5,1125.5 C 1887.77,1130.43 1887.1,1135.1 1885.5,1139.5C 1885.36,1134.59 1886.03,1129.92 1887.5,1125.5 Z"/></g>
<g><path style="opacity:1" fill="#b79aee" d="M 1885.5,1139.5 C 1885.77,1144.43 1885.1,1149.1 1883.5,1153.5C 1883.36,1148.59 1884.03,1143.92 1885.5,1139.5 Z"/></g>
<g><path style="opacity:1" fill="#af8fec" d="M 1883.5,1153.5 C 1883.55,1158.55 1883.05,1163.55 1882,1168.5C 1881.72,1169.42 1881.22,1170.08 1880.5,1170.5C 1881.2,1164.65 1882.2,1158.98 1883.5,1153.5 Z"/></g>
<g><path style="opacity:1" fill="#c1a9f1" d="M 157.5,1162.5 C 158.657,1165.27 159.324,1168.27 159.5,1171.5C 157.882,1168.83 157.215,1165.83 157.5,1162.5 Z"/></g>
<g><path style="opacity:1" fill="#bba1ef" d="M 1148.5,892.5 C 1148.5,892.833 1148.5,893.167 1148.5,893.5C 1148.5,988.5 1148.5,1083.5 1148.5,1178.5C 1235.5,1178.5 1322.5,1178.5 1409.5,1178.5C 1322.33,1179.5 1235,1179.83 1147.5,1179.5C 1147.17,1083.67 1147.5,987.999 1148.5,892.5 Z"/></g>
<g><path style="opacity:1" fill="#bda3ef" d="M 1879.5,1179.5 C 1879.59,1182.15 1878.92,1184.49 1877.5,1186.5C 1877.41,1183.85 1878.08,1181.51 1879.5,1179.5 Z"/></g>
<g><path style="opacity:1" fill="#ad8cec" d="M 161.5,1185.5 C 163.118,1189.57 164.118,1193.91 164.5,1198.5C 162.933,1197.32 162.099,1195.65 162,1193.5C 161.503,1190.85 161.336,1188.19 161.5,1185.5 Z"/></g>
<g><path style="opacity:1" fill="#b597ee" d="M 1877.5,1187.5 C 1877.66,1190.19 1877.5,1192.85 1877,1195.5C 1876.62,1196.06 1876.12,1196.39 1875.5,1196.5C 1875.68,1193.27 1876.34,1190.27 1877.5,1187.5 Z"/></g>
<g><path style="opacity:1" fill="#b090ec" d="M 164.5,1199.5 C 165.66,1203.68 166.66,1208.01 167.5,1212.5C 164.965,1208.65 163.965,1204.31 164.5,1199.5 Z"/></g>
<g><path style="opacity:1" fill="#bea3f0" d="M 1873.5,1208.5 C 1873.59,1211.15 1872.92,1213.49 1871.5,1215.5C 1871.41,1212.85 1872.08,1210.51 1873.5,1208.5 Z"/></g>
<g><path style="opacity:1" fill="#ba9fef" d="M 1871.5,1217.5 C 1871.59,1220.15 1870.92,1222.49 1869.5,1224.5C 1869.41,1221.85 1870.08,1219.51 1871.5,1217.5 Z"/></g>
<g><path style="opacity:1" fill="#b79aee" d="M 169.5,1223.5 C 170.924,1225.51 171.59,1227.85 171.5,1230.5C 170.076,1228.49 169.41,1226.15 169.5,1223.5 Z"/></g>
<g><path style="opacity:1" fill="#bba0ef" d="M 1865.5,1242.5 C 1865.74,1244.9 1865.07,1246.9 1863.5,1248.5C 1863.26,1246.1 1863.93,1244.1 1865.5,1242.5 Z"/></g>
<g><path style="opacity:1" fill="#c0a7f0" d="M 1862.5,1252.5 C 1862.59,1255.15 1861.92,1257.49 1860.5,1259.5C 1860.41,1256.85 1861.08,1254.51 1862.5,1252.5 Z"/></g>
<g><path style="opacity:1" fill="#b699ee" d="M 176.5,1251.5 C 178.074,1253.1 178.741,1255.1 178.5,1257.5C 176.926,1255.9 176.259,1253.9 176.5,1251.5 Z"/></g>
<g><path style="opacity:1" fill="#bda2ef" d="M 178.5,1257.5 C 179.924,1259.51 180.59,1261.85 180.5,1264.5C 179.076,1262.49 178.41,1260.15 178.5,1257.5 Z"/></g>
<g><path style="opacity:1" fill="#c1a8f0" d="M 1860.5,1259.5 C 1860.59,1262.15 1859.92,1264.49 1858.5,1266.5C 1858.41,1263.85 1859.08,1261.51 1860.5,1259.5 Z"/></g>
<g><path style="opacity:1" fill="#bba0ef" d="M 180.5,1264.5 C 181.924,1266.51 182.59,1268.85 182.5,1271.5C 181.076,1269.49 180.41,1267.15 180.5,1264.5 Z"/></g>
<g><path style="opacity:1" fill="#bfa5ef" d="M 1858.5,1266.5 C 1858.59,1269.15 1857.92,1271.49 1856.5,1273.5C 1856.41,1270.85 1857.08,1268.51 1858.5,1266.5 Z"/></g>
<g><path style="opacity:1" fill="#bca2ef" d="M 182.5,1271.5 C 184.61,1275.5 185.943,1279.84 186.5,1284.5C 184.39,1280.5 183.057,1276.16 182.5,1271.5 Z"/></g>
<g><path style="opacity:1" fill="#bca1ef" d="M 1856.5,1273.5 C 1856.28,1277.16 1855.28,1280.5 1853.5,1283.5C 1853.72,1279.84 1854.72,1276.5 1856.5,1273.5 Z"/></g>
<g><path style="opacity:1" fill="#999ba2" d="M 652.5,1282.5 C 644.742,1282.27 637.076,1282.93 629.5,1284.5C 631.277,1283.4 633.277,1282.57 635.5,1282C 641.349,1281.18 647.015,1281.35 652.5,1282.5 Z"/></g>
<g><path style="opacity:1" fill="#2e3341" d="M 652.5,1282.5 C 653.568,1283.43 654.901,1283.77 656.5,1283.5C 658.033,1285.25 660.033,1286.25 662.5,1286.5C 681.614,1300.19 684.78,1317.19 672,1337.5C 661.903,1347.62 649.737,1351.62 635.5,1349.5C 633.491,1347.93 631.157,1346.93 628.5,1346.5C 615.58,1340.35 608.913,1330.02 608.5,1315.5C 608.798,1300.56 615.798,1290.22 629.5,1284.5C 637.076,1282.93 644.742,1282.27 652.5,1282.5 Z"/></g>
<g><path style="opacity:1" fill="#a4a6ac" d="M 989.5,1285.5 C 974.924,1283.67 960.257,1283.01 945.5,1283.5C 945.5,1305.17 945.5,1326.83 945.5,1348.5C 944.503,1326.67 944.169,1304.67 944.5,1282.5C 959.211,1282.11 973.878,1282.61 988.5,1284C 989.056,1284.38 989.389,1284.88 989.5,1285.5 Z"/></g>
<g><path style="opacity:1" fill="#8e9199" d="M 1077.5,1283.5 C 1079.47,1282.84 1081.64,1282.5 1084,1282.5C 1086.61,1282.53 1088.78,1283.2 1090.5,1284.5C 1086.26,1283.56 1081.93,1283.23 1077.5,1283.5 Z"/></g>
<g><path style="opacity:1" fill="#93959d" d="M 1183.5,1348.5 C 1183.5,1329.83 1183.5,1311.17 1183.5,1292.5C 1190.83,1292.5 1198.17,1292.5 1205.5,1292.5C 1205.5,1289.5 1205.5,1286.5 1205.5,1283.5C 1187.17,1283.5 1168.83,1283.5 1150.5,1283.5C 1150.5,1286.5 1150.5,1289.5 1150.5,1292.5C 1157.69,1292.18 1164.69,1292.51 1171.5,1293.5C 1164.5,1293.5 1157.5,1293.5 1150.5,1293.5C 1149.52,1290.04 1149.19,1286.37 1149.5,1282.5C 1168.5,1282.5 1187.5,1282.5 1206.5,1282.5C 1206.5,1286.17 1206.5,1289.83 1206.5,1293.5C 1199.17,1293.5 1191.83,1293.5 1184.5,1293.5C 1184.83,1312.01 1184.5,1330.34 1183.5,1348.5 Z"/></g>
<g><path style="opacity:1" fill="#2e3341" d="M 1336.5,1282.5 C 1346.86,1281.17 1356.53,1283 1365.5,1288C 1372.76,1293.09 1377.43,1299.92 1379.5,1308.5C 1379.64,1314.54 1379.31,1320.54 1378.5,1326.5C 1376.93,1329.31 1375.6,1332.31 1374.5,1335.5C 1371.5,1337.83 1368.83,1340.5 1366.5,1343.5C 1353.15,1350.9 1339.49,1351.4 1325.5,1345C 1312.2,1335.2 1307.03,1322.04 1310,1305.5C 1312.87,1296.81 1318.37,1290.47 1326.5,1286.5C 1330.15,1285.73 1333.48,1284.4 1336.5,1282.5 Z"/></g>
<g><path style="opacity:1" fill="#8e9098" d="M 1427.5,1283.5 C 1429.13,1282.84 1430.97,1282.51 1433,1282.5C 1435.3,1282.55 1437.13,1283.21 1438.5,1284.5C 1434.94,1283.58 1431.27,1283.24 1427.5,1283.5 Z"/></g>
<g><path style="opacity:1" fill="#292e3d" d="M 567.5,1292.5 C 555.5,1292.5 543.5,1292.5 531.5,1292.5C 531.5,1299.5 531.5,1306.5 531.5,1313.5C 541.653,1314.49 551.986,1314.83 562.5,1314.5C 562.5,1317.17 562.5,1319.83 562.5,1322.5C 551.986,1322.17 541.653,1322.51 531.5,1323.5C 531.5,1331.83 531.5,1340.17 531.5,1348.5C 527.5,1348.5 523.5,1348.5 519.5,1348.5C 519.5,1326.83 519.5,1305.17 519.5,1283.5C 535.5,1283.5 551.5,1283.5 567.5,1283.5C 567.5,1286.5 567.5,1289.5 567.5,1292.5 Z"/></g>
<g><path style="opacity:1" fill="#aeb0b6" d="M 737.5,1283.5 C 733.5,1283.5 729.5,1283.5 725.5,1283.5C 725.002,1300.25 725.668,1316.92 727.5,1333.5C 726.883,1333.39 726.383,1333.06 726,1332.5C 724.609,1315.87 724.109,1299.21 724.5,1282.5C 729.032,1282.18 733.366,1282.52 737.5,1283.5 Z"/></g>
<g><path style="opacity:1" fill="#2c313f" d="M 737.5,1283.5 C 737.333,1297.5 737.5,1311.5 738,1325.5C 739.153,1331.84 742.653,1336.18 748.5,1338.5C 752.981,1339.65 757.648,1339.82 762.5,1339C 763.381,1338.29 764.047,1337.46 764.5,1336.5C 768.885,1334.75 770.885,1331.42 770.5,1326.5C 771.496,1312.34 771.829,1298.01 771.5,1283.5C 775.167,1283.5 778.833,1283.5 782.5,1283.5C 782.772,1299.53 782.439,1315.53 781.5,1331.5C 778.76,1340.57 772.76,1346.24 763.5,1348.5C 757.87,1349.29 752.203,1349.63 746.5,1349.5C 742.606,1347.58 738.606,1345.75 734.5,1344C 731.759,1340.66 729.426,1337.16 727.5,1333.5C 725.668,1316.92 725.002,1300.25 725.5,1283.5C 729.5,1283.5 733.5,1283.5 737.5,1283.5 Z"/></g>
<g><path style="opacity:1" fill="#898b94" d="M 781.5,1331.5 C 782.439,1315.53 782.772,1299.53 782.5,1283.5C 778.833,1283.5 775.167,1283.5 771.5,1283.5C 771.829,1298.01 771.496,1312.34 770.5,1326.5C 770.5,1311.83 770.5,1297.17 770.5,1282.5C 774.833,1282.5 779.167,1282.5 783.5,1282.5C 783.667,1298.17 783.5,1313.84 783,1329.5C 782.722,1330.42 782.222,1331.08 781.5,1331.5 Z"/></g>
<g><path style="opacity:1" fill="#6c6f79" d="M 845.5,1283.5 C 842.167,1283.5 838.833,1283.5 835.5,1283.5C 835.5,1305.17 835.5,1326.83 835.5,1348.5C 839.167,1348.5 842.833,1348.5 846.5,1348.5C 842.702,1349.48 838.702,1349.82 834.5,1349.5C 834.5,1327.17 834.5,1304.83 834.5,1282.5C 838.371,1282.19 842.038,1282.52 845.5,1283.5 Z"/></g>
<g><path style="opacity:1" fill="#2b303f" d="M 845.5,1283.5 C 856.833,1297.5 868.167,1311.5 879.5,1325.5C 879.56,1326.04 879.893,1326.38 880.5,1326.5C 881.499,1312.18 881.833,1297.85 881.5,1283.5C 885.167,1283.5 888.833,1283.5 892.5,1283.5C 892.5,1305.17 892.5,1326.83 892.5,1348.5C 889.167,1348.5 885.833,1348.5 882.5,1348.5C 871.516,1334.19 860.182,1320.19 848.5,1306.5C 848.44,1305.96 848.107,1305.62 847.5,1305.5C 846.501,1319.82 846.167,1334.15 846.5,1348.5C 842.833,1348.5 839.167,1348.5 835.5,1348.5C 835.5,1326.83 835.5,1305.17 835.5,1283.5C 838.833,1283.5 842.167,1283.5 845.5,1283.5 Z"/></g>
<g><path style="opacity:1" fill="#a8abb1" d="M 881.5,1283.5 C 881.833,1297.85 881.499,1312.18 880.5,1326.5C 879.893,1326.38 879.56,1326.04 879.5,1325.5C 880.167,1311.5 880.833,1297.5 881.5,1283.5 Z"/></g>
<g><path style="opacity:1" fill="#7d8089" d="M 881.5,1283.5 C 885.298,1282.52 889.298,1282.18 893.5,1282.5C 893.5,1304.83 893.5,1327.17 893.5,1349.5C 889.629,1349.81 885.962,1349.48 882.5,1348.5C 885.833,1348.5 889.167,1348.5 892.5,1348.5C 892.5,1326.83 892.5,1305.17 892.5,1283.5C 888.833,1283.5 885.167,1283.5 881.5,1283.5 Z"/></g>
<g><path style="opacity:1" fill="#2c3140" d="M 989.5,1285.5 C 1005.65,1292.44 1012.48,1304.78 1010,1322.5C 1007.17,1335 999.673,1343.17 987.5,1347C 973.541,1348.37 959.541,1348.87 945.5,1348.5C 945.5,1326.83 945.5,1305.17 945.5,1283.5C 960.257,1283.01 974.924,1283.67 989.5,1285.5 Z"/></g>
<g><path style="opacity:1" fill="#2d3241" d="M 1077.5,1283.5 C 1081.93,1283.23 1086.26,1283.56 1090.5,1284.5C 1100.22,1305.34 1109.56,1326.34 1118.5,1347.5C 1114.7,1348.48 1110.7,1348.82 1106.5,1348.5C 1104.7,1343.78 1102.7,1339.11 1100.5,1334.5C 1089.17,1333.17 1077.83,1333.17 1066.5,1334.5C 1064.54,1338.74 1062.88,1343.08 1061.5,1347.5C 1057.26,1348.44 1052.93,1348.77 1048.5,1348.5C 1057.89,1326.71 1067.56,1305.04 1077.5,1283.5 Z"/></g>
<g><path style="opacity:1" fill="#2b303f" d="M 1183.5,1348.5 C 1179.5,1348.5 1175.5,1348.5 1171.5,1348.5C 1171.5,1330.17 1171.5,1311.83 1171.5,1293.5C 1164.69,1292.51 1157.69,1292.18 1150.5,1292.5C 1150.5,1289.5 1150.5,1286.5 1150.5,1283.5C 1168.83,1283.5 1187.17,1283.5 1205.5,1283.5C 1205.5,1286.5 1205.5,1289.5 1205.5,1292.5C 1198.17,1292.5 1190.83,1292.5 1183.5,1292.5C 1183.5,1311.17 1183.5,1329.83 1183.5,1348.5 Z"/></g>
<g><path style="opacity:1" fill="#dfdfe2" d="M 1250.5,1282.5 C 1250.5,1282.83 1250.5,1283.17 1250.5,1283.5C 1249.5,1304.99 1249.17,1326.66 1249.5,1348.5C 1248.83,1337.67 1248.5,1326.67 1248.5,1315.5C 1248.5,1304.15 1249.17,1293.15 1250.5,1282.5 Z"/></g>
<g><path style="opacity:1" fill="#787a84" d="M 1250.5,1282.5 C 1254.5,1282.5 1258.5,1282.5 1262.5,1282.5C 1262.5,1304.83 1262.5,1327.17 1262.5,1349.5C 1257.97,1349.82 1253.63,1349.48 1249.5,1348.5C 1249.17,1326.66 1249.5,1304.99 1250.5,1283.5C 1250.5,1283.17 1250.5,1282.83 1250.5,1282.5 Z"/></g>
<g><path style="opacity:1" fill="#282e3d" d="M 1250.5,1283.5 C 1254.17,1283.5 1257.83,1283.5 1261.5,1283.5C 1261.5,1305.17 1261.5,1326.83 1261.5,1348.5C 1257.83,1348.5 1254.17,1348.5 1250.5,1348.5C 1250.5,1326.83 1250.5,1305.17 1250.5,1283.5 Z"/></g>
<g><path style="opacity:1" fill="#7c7f88" d="M 1336.5,1282.5 C 1333.48,1284.4 1330.15,1285.73 1326.5,1286.5C 1329.31,1284.1 1332.64,1282.77 1336.5,1282.5 Z"/></g>
<g><path style="opacity:1" fill="#2b303f" d="M 1427.5,1283.5 C 1431.27,1283.24 1434.94,1283.58 1438.5,1284.5C 1449.83,1298.17 1461.17,1311.83 1472.5,1325.5C 1472.37,1326.38 1472.7,1327.04 1473.5,1327.5C 1474.5,1312.85 1474.83,1298.18 1474.5,1283.5C 1478.17,1283.5 1481.83,1283.5 1485.5,1283.5C 1485.5,1305.17 1485.5,1326.83 1485.5,1348.5C 1482.15,1348.67 1478.82,1348.5 1475.5,1348C 1464.3,1333.98 1452.97,1320.14 1441.5,1306.5C 1441.44,1305.96 1441.11,1305.62 1440.5,1305.5C 1439.5,1319.82 1439.17,1334.15 1439.5,1348.5C 1435.5,1348.5 1431.5,1348.5 1427.5,1348.5C 1427.5,1326.83 1427.5,1305.17 1427.5,1283.5 Z"/></g>
<g><path style="opacity:1" fill="#989ba3" d="M 1474.5,1283.5 C 1474.83,1298.18 1474.5,1312.85 1473.5,1327.5C 1472.7,1327.04 1472.37,1326.38 1472.5,1325.5C 1473.17,1311.5 1473.83,1297.5 1474.5,1283.5 Z"/></g>
<g><path style="opacity:1" fill="#888b93" d="M 1474.5,1283.5 C 1478.3,1282.52 1482.3,1282.18 1486.5,1282.5C 1486.83,1304.67 1486.5,1326.67 1485.5,1348.5C 1485.5,1326.83 1485.5,1305.17 1485.5,1283.5C 1481.83,1283.5 1478.17,1283.5 1474.5,1283.5 Z"/></g>
<g><path style="opacity:1" fill="#9ea1a8" d="M 656.5,1283.5 C 658.967,1283.75 660.967,1284.75 662.5,1286.5C 660.033,1286.25 658.033,1285.25 656.5,1283.5 Z"/></g>
<g><path style="opacity:1" fill="#b89cee" d="M 1853.5,1283.5 C 1851.66,1292.7 1848.66,1301.36 1844.5,1309.5C 1847.13,1300.61 1850.13,1291.94 1853.5,1283.5 Z"/></g>
<g><path style="opacity:1" fill="#b99dee" d="M 186.5,1284.5 C 189.871,1292.94 192.871,1301.61 195.5,1310.5C 191.341,1302.36 188.341,1293.7 186.5,1284.5 Z"/></g>
<g><path style="opacity:1" fill="#a9abb1" d="M 654.5,1295.5 C 647.147,1292.84 639.814,1292.84 632.5,1295.5C 635.465,1293.06 638.965,1292.06 643,1292.5C 646.57,1292.54 650.07,1293.04 653.5,1294C 654.056,1294.38 654.389,1294.88 654.5,1295.5 Z"/></g>
<g><path style="opacity:1" fill="#a1a3aa" d="M 1355.5,1295.5 C 1348.15,1292.89 1340.82,1292.89 1333.5,1295.5C 1334.35,1294.03 1335.68,1293.2 1337.5,1293C 1343.24,1292.21 1348.9,1292.54 1354.5,1294C 1355.06,1294.38 1355.39,1294.88 1355.5,1295.5 Z"/></g>
<g><path style="opacity:1" fill="#fcfcfc" d="M 654.5,1295.5 C 659.084,1297.08 662.417,1300.08 664.5,1304.5C 666.085,1309.68 666.752,1315.01 666.5,1320.5C 664.734,1328.6 660.067,1334.26 652.5,1337.5C 647.87,1338.23 643.203,1338.56 638.5,1338.5C 630.366,1337.03 625.033,1332.37 622.5,1324.5C 621.167,1318.5 621.167,1312.5 622.5,1306.5C 624.442,1301.56 627.775,1297.89 632.5,1295.5C 639.814,1292.84 647.147,1292.84 654.5,1295.5 Z"/></g>
<g><path style="opacity:1" fill="#fbfbfb" d="M 1355.5,1295.5 C 1365.14,1300.9 1368.97,1309.23 1367,1320.5C 1364.91,1330.75 1358.75,1336.75 1348.5,1338.5C 1343.35,1338.71 1338.35,1338.04 1333.5,1336.5C 1325.36,1331.99 1321.36,1324.99 1321.5,1315.5C 1321.44,1306.26 1325.44,1299.6 1333.5,1295.5C 1340.82,1292.89 1348.15,1292.89 1355.5,1295.5 Z"/></g>
<g><path style="opacity:1" fill="#9ea0a7" d="M 978.5,1293.5 C 971.833,1293.5 965.167,1293.5 958.5,1293.5C 958.5,1308.17 958.5,1322.83 958.5,1337.5C 965.5,1337.5 972.5,1337.5 979.5,1337.5C 972.352,1338.49 965.019,1338.82 957.5,1338.5C 957.5,1323.17 957.5,1307.83 957.5,1292.5C 964.687,1292.18 971.687,1292.51 978.5,1293.5 Z"/></g>
<g><path style="opacity:1" fill="#fcfcfd" d="M 978.5,1293.5 C 994.528,1297.2 1000.69,1307.2 997,1323.5C 993.963,1331.71 988.13,1336.37 979.5,1337.5C 972.5,1337.5 965.5,1337.5 958.5,1337.5C 958.5,1322.83 958.5,1308.17 958.5,1293.5C 965.167,1293.5 971.833,1293.5 978.5,1293.5 Z"/></g>
<g><path style="opacity:1" fill="#cecfd2" d="M 1150.5,1293.5 C 1157.5,1293.5 1164.5,1293.5 1171.5,1293.5C 1171.5,1311.83 1171.5,1330.17 1171.5,1348.5C 1170.5,1330.67 1170.17,1312.67 1170.5,1294.5C 1163.65,1294.82 1156.98,1294.49 1150.5,1293.5 Z"/></g>
<g><path style="opacity:1" fill="#f6f6f7" d="M 1095.5,1323.5 C 1087.43,1324.13 1079.76,1323.47 1072.5,1321.5C 1075.78,1312.65 1079.45,1303.99 1083.5,1295.5C 1088.05,1304.59 1092.05,1313.93 1095.5,1323.5 Z"/></g>
<g><path style="opacity:1" fill="#b2b4b9" d="M 848.5,1306.5 C 847.833,1320.5 847.167,1334.5 846.5,1348.5C 846.167,1334.15 846.501,1319.82 847.5,1305.5C 848.107,1305.62 848.44,1305.96 848.5,1306.5 Z"/></g>
<g><path style="opacity:1" fill="#cacbcf" d="M 1441.5,1306.5 C 1440.83,1320.5 1440.17,1334.5 1439.5,1348.5C 1439.17,1334.15 1439.5,1319.82 1440.5,1305.5C 1441.11,1305.62 1441.44,1305.96 1441.5,1306.5 Z"/></g>
<g><path style="opacity:1" fill="#a8abb1" d="M 567.5,1292.5 C 556.012,1293.49 544.345,1293.83 532.5,1293.5C 532.5,1299.83 532.5,1306.17 532.5,1312.5C 543.014,1312.17 553.347,1312.51 563.5,1313.5C 552.833,1313.5 542.167,1313.5 531.5,1313.5C 531.5,1306.5 531.5,1299.5 531.5,1292.5C 543.5,1292.5 555.5,1292.5 567.5,1292.5 Z"/></g>
<g><path style="opacity:1" fill="#515561" d="M 622.5,1306.5 C 621.167,1312.5 621.167,1318.5 622.5,1324.5C 620.245,1322.24 619.245,1319.41 619.5,1316C 619.637,1313.1 620.137,1310.27 621,1307.5C 621.383,1306.94 621.883,1306.61 622.5,1306.5 Z"/></g>
<g><path style="opacity:1" fill="#a1a3a9" d="M 664.5,1304.5 C 665.793,1305.84 666.626,1307.51 667,1309.5C 667.81,1313.36 667.643,1317.02 666.5,1320.5C 666.752,1315.01 666.085,1309.68 664.5,1304.5 Z"/></g>
<g><path style="opacity:1" fill="#bb9fef" d="M 1842.5,1315.5 C 1842.65,1318.72 1841.65,1321.38 1839.5,1323.5C 1840.13,1320.6 1841.13,1317.94 1842.5,1315.5 Z"/></g>
<g><path style="opacity:1" fill="#5b5f6b" d="M 531.5,1313.5 C 542.167,1313.5 552.833,1313.5 563.5,1313.5C 563.5,1316.83 563.5,1320.17 563.5,1323.5C 552.833,1323.5 542.167,1323.5 531.5,1323.5C 541.653,1322.51 551.986,1322.17 562.5,1322.5C 562.5,1319.83 562.5,1317.17 562.5,1314.5C 551.986,1314.83 541.653,1314.49 531.5,1313.5 Z"/></g>
<g><path style="opacity:1" fill="#c7c8cc" d="M 531.5,1323.5 C 542.167,1323.5 552.833,1323.5 563.5,1323.5C 553.347,1324.49 543.014,1324.83 532.5,1324.5C 532.826,1332.68 532.492,1340.68 531.5,1348.5C 531.5,1340.17 531.5,1331.83 531.5,1323.5 Z"/></g>
<g><path style="opacity:1" fill="#83858e" d="M 1072.5,1321.5 C 1079.76,1323.47 1087.43,1324.13 1095.5,1323.5C 1087.68,1324.49 1079.68,1324.83 1071.5,1324.5C 1071.26,1323.21 1071.6,1322.21 1072.5,1321.5 Z"/></g>
<g><path style="opacity:1" fill="#a1a4aa" d="M 1379.5,1308.5 C 1380.16,1310.81 1380.5,1313.31 1380.5,1316C 1380.7,1319.8 1380.03,1323.3 1378.5,1326.5C 1379.31,1320.54 1379.64,1314.54 1379.5,1308.5 Z"/></g>
<g><path style="opacity:1" fill="#b394ed" d="M 1839.5,1324.5 C 1839.83,1327.49 1838.83,1329.82 1836.5,1331.5C 1836.93,1328.84 1837.93,1326.51 1839.5,1324.5 Z"/></g>
<g><path style="opacity:1" fill="#5f636e" d="M 770.5,1326.5 C 770.885,1331.42 768.885,1334.75 764.5,1336.5C 767.433,1333.67 769.433,1330.34 770.5,1326.5 Z"/></g>
<g><path style="opacity:1" fill="#777a84" d="M 652.5,1337.5 C 650.193,1339.05 647.527,1339.71 644.5,1339.5C 642.304,1339.5 640.304,1339.16 638.5,1338.5C 643.203,1338.56 647.87,1338.23 652.5,1337.5 Z"/></g>
<g><path style="opacity:1" fill="#5b5e6a" d="M 764.5,1336.5 C 764.047,1337.46 763.381,1338.29 762.5,1339C 757.648,1339.82 752.981,1339.65 748.5,1338.5C 754.089,1339 759.422,1338.33 764.5,1336.5 Z"/></g>
<g><path style="opacity:1" fill="#8c8e97" d="M 1333.5,1336.5 C 1338.35,1338.04 1343.35,1338.71 1348.5,1338.5C 1345.02,1339.64 1341.36,1339.81 1337.5,1339C 1335.93,1338.39 1334.6,1337.56 1333.5,1336.5 Z"/></g>
<g><path style="opacity:1" fill="#bfc1c5" d="M 1374.5,1335.5 C 1372.83,1339.17 1370.17,1341.83 1366.5,1343.5C 1368.83,1340.5 1371.5,1337.83 1374.5,1335.5 Z"/></g>
<g><path style="opacity:1" fill="#b697ee" d="M 207.5,1343.5 C 209.065,1345.51 210.065,1347.84 210.5,1350.5C 208.166,1348.82 207.166,1346.49 207.5,1343.5 Z"/></g>
<g><path style="opacity:1" fill="#a5a7ad" d="M 628.5,1346.5 C 631.157,1346.93 633.491,1347.93 635.5,1349.5C 632.654,1349.45 630.32,1348.45 628.5,1346.5 Z"/></g>
<g><path style="opacity:1" fill="#aaacb2" d="M 1061.5,1347.5 C 1059.78,1348.8 1057.61,1349.47 1055,1349.5C 1052.64,1349.5 1050.47,1349.16 1048.5,1348.5C 1052.93,1348.77 1057.26,1348.44 1061.5,1347.5 Z"/></g>
<g><path style="opacity:1" fill="#a6a9af" d="M 1118.5,1347.5 C 1119.04,1347.56 1119.38,1347.89 1119.5,1348.5C 1115.02,1349.81 1110.68,1349.81 1106.5,1348.5C 1110.7,1348.82 1114.7,1348.48 1118.5,1347.5 Z"/></g>
<g><path style="opacity:1" fill="#c2c3c7" d="M 763.5,1348.5 C 761.085,1349.81 758.252,1350.48 755,1350.5C 751.979,1350.5 749.146,1350.16 746.5,1349.5C 752.203,1349.63 757.87,1349.29 763.5,1348.5 Z"/></g>
<g><path style="opacity:1" fill="#b495ed" d="M 1828.5,1352.5 C 1828.83,1355.49 1827.83,1357.82 1825.5,1359.5C 1825.93,1356.84 1826.93,1354.51 1828.5,1352.5 Z"/></g>
<g><path style="opacity:1" fill="#c6aff1" d="M 1790.5,1433.5 C 1790.57,1435.03 1789.91,1436.03 1788.5,1436.5C 1788.43,1434.97 1789.09,1433.97 1790.5,1433.5 Z"/></g>
<g><path style="opacity:1" fill="#a783ea" d="M 1421.5,1797.5 C 1421.63,1798.38 1421.3,1799.04 1420.5,1799.5C 1411.81,1804.35 1402.81,1808.35 1393.5,1811.5C 1402.52,1806.33 1411.85,1801.66 1421.5,1797.5 Z"/></g>
<g><path style="opacity:1" fill="#c2a9f0" d="M 655.5,1815.5 C 657.027,1815.43 658.027,1816.09 658.5,1817.5C 656.973,1817.57 655.973,1816.91 655.5,1815.5 Z"/></g>
<g><path style="opacity:1" fill="#ae8eec" d="M 1321.5,1841.5 C 1321.39,1842.12 1321.06,1842.62 1320.5,1843C 1316.55,1844.48 1312.55,1845.65 1308.5,1846.5C 1312.52,1844.27 1316.86,1842.6 1321.5,1841.5 Z"/></g>
<g><path style="opacity:1" fill="#bca0ef" d="M 738.5,1848.5 C 743.144,1849.6 747.478,1851.27 751.5,1853.5C 746.676,1852.79 742.343,1851.12 738.5,1848.5 Z"/></g>
<g><path style="opacity:1" fill="#b89bee" d="M 1293.5,1851.5 C 1287.5,1854.28 1281.17,1856.28 1274.5,1857.5C 1280.5,1854.72 1286.83,1852.72 1293.5,1851.5 Z"/></g>
<g><path style="opacity:1" fill="#c3aaf1" d="M 758.5,1855.5 C 761.916,1855.53 764.916,1856.53 767.5,1858.5C 764.215,1858.07 761.215,1857.07 758.5,1855.5 Z"/></g>
<g><path style="opacity:1" fill="#b89cee" d="M 1274.5,1857.5 C 1272.49,1858.92 1270.15,1859.59 1267.5,1859.5C 1269.51,1858.08 1271.85,1857.41 1274.5,1857.5 Z"/></g>
<g><path style="opacity:1" fill="#dacaf6" d="M 773.5,1859.5 C 777.915,1859.86 781.915,1861.19 785.5,1863.5C 781.233,1862.74 777.233,1861.41 773.5,1859.5 Z"/></g>
<g><path style="opacity:1" fill="#bca1ef" d="M 1267.5,1859.5 C 1265.49,1860.92 1263.15,1861.59 1260.5,1861.5C 1262.51,1860.08 1264.85,1859.41 1267.5,1859.5 Z"/></g>
<g><path style="opacity:1" fill="#bda2ef" d="M 1260.5,1861.5 C 1258.49,1862.92 1256.15,1863.59 1253.5,1863.5C 1255.51,1862.08 1257.85,1861.41 1260.5,1861.5 Z"/></g>
<g><path style="opacity:1" fill="#b597ed" d="M 802.5,1867.5 C 807.356,1868.54 812.022,1869.88 816.5,1871.5C 812.087,1871.15 807.754,1870.31 803.5,1869C 802.944,1868.62 802.611,1868.12 802.5,1867.5 Z"/></g>
<g><path style="opacity:1" fill="#aa88eb" d="M 1230.5,1869.5 C 1226.65,1872.04 1222.31,1873.04 1217.5,1872.5C 1221.68,1871.34 1226.01,1870.34 1230.5,1869.5 Z"/></g>
<g><path style="opacity:1" fill="#b395ed" d="M 1217.5,1872.5 C 1215.49,1873.92 1213.15,1874.59 1210.5,1874.5C 1212.51,1873.08 1214.85,1872.41 1217.5,1872.5 Z"/></g>
<g><path style="opacity:1" fill="#b192ed" d="M 1208.5,1874.5 C 1208.39,1875.12 1208.06,1875.62 1207.5,1876C 1199.94,1877.88 1192.27,1879.05 1184.5,1879.5C 1192.38,1877.84 1200.38,1876.18 1208.5,1874.5 Z"/></g>
<g><path style="opacity:1" fill="#b496ed" d="M 1183.5,1879.5 C 1181.49,1880.92 1179.15,1881.59 1176.5,1881.5C 1178.51,1880.08 1180.85,1879.41 1183.5,1879.5 Z"/></g>
<g><path style="opacity:1" fill="#b89bee" d="M 876.5,1883.5 C 888.365,1884.72 900.032,1886.39 911.5,1888.5C 899.525,1888.05 887.859,1886.38 876.5,1883.5 Z"/></g>
<g><path style="opacity:1" fill="#ac8aeb" d="M 1164.5,1883.5 C 1156.1,1885.71 1147.43,1887.04 1138.5,1887.5C 1146.85,1884.97 1155.52,1883.64 1164.5,1883.5 Z"/></g>
<g><path style="opacity:1" fill="#b598ee" d="M 915.5,1888.5 C 922.043,1889 928.377,1890 934.5,1891.5C 928.816,1891.26 923.149,1890.76 917.5,1890C 916.584,1889.72 915.918,1889.22 915.5,1888.5 Z"/></g>
<g><path style="opacity:1" fill="#af8fec" d="M 1128.5,1888.5 C 1123.4,1889.96 1118.07,1890.62 1112.5,1890.5C 1117.6,1889.04 1122.93,1888.38 1128.5,1888.5 Z"/></g>
<g><path style="opacity:1" fill="#ae8fec" d="M 1110.5,1890.5 C 1104.39,1892 1098.06,1892.66 1091.5,1892.5C 1097.62,1891.12 1103.95,1890.45 1110.5,1890.5 Z"/></g>
<g><path style="opacity:1" fill="#ab89eb" d="M 1088.5,1892.5 C 1086.37,1893.31 1084.04,1893.81 1081.5,1894C 1072.51,1894.5 1063.51,1894.67 1054.5,1894.5C 1065.66,1893.52 1076.99,1892.85 1088.5,1892.5 Z"/></g>
</svg>
