<?xml version="1.0" encoding="UTF-8"?>
<!DOCTYPE svg PUBLIC "-//W3C//DTD SVG 1.1//EN" "http://www.w3.org/Graphics/SVG/1.1/DTD/svg11.dtd">
<!-- Creator: CorelDRAW -->
<svg xmlns="http://www.w3.org/2000/svg" xml:space="preserve"  style="shape-rendering:geometricPrecision; text-rendering:geometricPrecision; image-rendering:optimizeQuality; fill-rule:evenodd; clip-rule:evenodd"
viewBox="0 0 110 32.281"
 xmlns:xlink="http://www.w3.org/1999/xlink">
 <defs>
  <style type="text/css">
   <![CDATA[
    .fil0 {fill:#1F1A17}
    .fil1 {fill:#F0BA47}
   ]]>
  </style>
 </defs>
 <g id="Warstwa_x0020_1">
  <metadata id="CorelCorpID_0Corel-Layer"/>
  <g id="_124535688">
   <path id="_69699728" class="fil0" d="M74.0009 11.393l0 -4.3512 -3.5619 0 0 -5.8361 -7.379 0 0 5.8361 -2.7945 0 0 3.0171c-1.7123,-2.026 -4.341,-3.4555 -8.1734,-3.5043l-0.2299 0c-5.7435,0 -9.1386,3.273 -10.2507,7.1629 -0.3057,-5.3748 -3.5452,-7.1629 -7.2245,-7.1629 -2.3846,0 -4.5093,0.8188 -6.4056,3.5069l0 -3.0197 -6.7912 0 0 6.8914c-1.1173,-5.5891 -6.1484,-7.3568 -10.4548,-7.3786l-0.0758 0c-5.6113,0 -10.6596,2.945 -10.6596,10.0871 0,6.8338 5.1511,9.8047 10.7354,9.8302l0.0769 0c4.5494,-0.0681 9.2956,-2.1145 10.3779,-7.7346l0 7.1447 7.4303 0 0 -9.5989c0,-3.1224 1.1799,-3.841 2.9487,-3.841 1.8449,0 2.5864,1.1777 2.5864,3.4311l0 10.0088 7.4828 0 0 -6.1422c1.2306,4.1176 4.997,6.7321 10.3011,6.7321l0.1526 0c6.663,-0.0513 9.5577,-3.3549 10.2493,-6.2719l-7.1486 0c-0.59,1.2021 -1.6915,1.6879 -2.8179,1.6879 -0.1027,0 -0.1796,0 -0.2828,-0.0255 -1.666,-0.1775 -3.3819,-1.3552 -3.4577,-3.7114l14.2973 0 0 1.4077c0,5.5045 1.3304,6.4774 6.867,6.4774 1.2535,0 3.9464,-0.1541 4.1508,-0.1541l0 -5.3234c-2.769,0 -3.5105,0 -3.5105,-2.1776l0 -6.988 3.5619 0zm-63.2655 9.9847c-0.0259,0 -0.0503,0.0244 -0.0758,0.0244 -2.5107,0 -3.1524,-2.6622 -3.1524,-5.119 0,-1.8948 0.6158,-4.5826 3.2282,-4.7356l0.1541 0c2.5132,0 3.0748,3.1983 3.0748,4.7356 0,2.7137 -0.6902,5.0687 -3.2289,5.0946zm41.3567 -7.0393l-3.4577 0c0,-2.0235 1.3045,-3.2023 3.4577,-3.2267l0.0773 0c1.6132,0 3.2292,1.2546 3.3823,3.2267l-3.4596 0zm9.1274 -2.9454l1.7122 0 0 5.5665c-0.1556,-1.8756 -0.6814,-3.8477 -1.7122,-5.5665z"/>
   <path id="_69699560" class="fil0" d="M102.546 -0.0001l0 11.8894c-1.3719,-3.7358 -4.4452,-5.3362 -7.6358,-5.3362 -0.7186,0 -1.4875,0.1031 -2.2305,0.3087 -1.5119,0.4587 -2.9465,1.4076 -3.7419,2.9938l-0.0503 0 0 -2.8138 -6.6629 0 0 25.2393 7.4317 0 0 -8.2426c0.8713,1.0491 1.8457,1.7921 3.0234,2.1507 0.59,0.1785 1.2302,0.2816 1.9218,0.2816 2.9837,-0.0605 6.4531,-1.5581 7.9445,-5.5624l0 4.9736 7.4544 0 0 -25.8821 -7.4544 0zm-9.8663 20.6592c-2.3576,0 -3.152,-2.2792 -3.152,-4.3002 0,-1.6904 0.5641,-4.2768 3.152,-4.2768 2.3063,0 3.0992,2.0493 3.1764,4.1999 0,2.0979 -0.8701,4.3513 -3.1764,4.3771z"/>
   <path id="_69699488" class="fil1" d="M77.8165 18.4841c2.8204,0 5.1251,2.2778 5.1251,5.0942 0,2.8167 -2.3047,5.1201 -5.1251,5.1201 -2.8179,0 -5.123,-2.3034 -5.123,-5.1201 0,-2.8164 2.3051,-5.0942 5.123,-5.0942z"/>
  </g>
 </g>
</svg>
